%
M48
M72
T01C0.01378
T02C0.03150
T03C0.03200
T04C0.03937
T05C0.04000
T06C0.07480
%
T01
X42445Y58099
X87445Y143099
X87445Y148099
T02
X170083Y36091
X174807Y32942
X170083Y29792
X174807Y26643
X170083Y23493
X153665Y17548
X145791Y17548
X137917Y17548
T03
X37406Y42509
X46201Y25757
X46201Y15757
X59453Y15501
X59453Y25501
X75201Y32627
X77406Y42509
X88823Y23690
X88823Y13690
X75201Y12627
X103980Y12745
X111480Y17745
X103980Y22745
X120909Y22548
X120909Y12548
X127445Y42036
X127445Y52036
X127445Y62036
X127445Y72036
X127445Y82036
X127445Y92036
X127445Y102036
X127445Y112036
X127445Y122036
X127445Y132036
X127445Y142036
X127445Y152036
X127445Y162036
X127445Y172036
X136854Y185107
X139728Y197745
X99728Y197745
X96854Y185107
X97445Y172036
X97445Y162036
X97445Y152036
X97445Y142036
X97445Y132036
X97445Y122036
X97445Y112036
X97445Y102036
X97445Y92036
X97445Y82036
X97445Y72036
X97445Y62036
X97445Y52036
X97445Y42036
X77524Y69398
X37524Y69398
X17406Y58611
X17406Y48611
X147130Y77391
X147130Y97391
X183783Y184871
X183783Y194871
T04
X130043Y17548
X161539Y17548
T05
X17327Y18257
X17327Y38257
X12445Y73099
X12445Y83099
X12445Y93099
X12445Y103099
X12445Y113099
X12445Y123099
X12445Y133099
X12445Y143099
X12500Y153686
X12500Y163686
X12500Y173686
X12500Y183686
X12500Y193686
X80083Y102115
X80083Y92115
X80083Y82115
X145988Y189989
X165988Y189989
X199945Y143099
X199945Y133099
X199945Y123099
X199945Y113099
X199945Y103099
X199945Y93099
X199945Y83099
X199945Y73099
T06
X190161Y15422
X190161Y44162
M30
