G75*
%MOIN*%
%OFA0B0*%
%FSLAX25Y25*%
%IPPOS*%
%LPD*%
%AMOC8*
5,1,8,0,0,1.08239X$1,22.5*
%
%ADD10C,0.00000*%
%ADD11OC8,0.05600*%
%ADD12C,0.05600*%
%ADD13C,0.05550*%
%ADD14C,0.11620*%
%ADD15C,0.05600*%
%ADD16C,0.07800*%
%ADD17C,0.06337*%
%ADD18OC8,0.07000*%
D10*
X0007445Y0008099D02*
X0007445Y0204950D01*
X0204295Y0204950D01*
X0204295Y0008099D01*
X0007445Y0008099D01*
D11*
X0037406Y0042509D03*
X0046201Y0025757D03*
X0046201Y0015757D03*
X0059453Y0015501D03*
X0059453Y0025501D03*
X0075201Y0032627D03*
X0077406Y0042509D03*
X0088823Y0023690D03*
X0088823Y0013690D03*
X0120909Y0012548D03*
X0120909Y0022548D03*
X0077524Y0069398D03*
X0037524Y0069398D03*
X0017406Y0058611D03*
X0017406Y0048611D03*
X0147130Y0077391D03*
X0136854Y0185107D03*
X0139728Y0197745D03*
X0099728Y0197745D03*
X0096854Y0185107D03*
X0183783Y0184871D03*
X0183783Y0194871D03*
D12*
X0147130Y0097391D03*
X0075201Y0012627D03*
D13*
X0137917Y0017548D03*
X0145791Y0017548D03*
X0153665Y0017548D03*
X0170083Y0023493D03*
X0174807Y0026643D03*
X0170083Y0029792D03*
X0174807Y0032942D03*
X0170083Y0036091D03*
D14*
X0190161Y0044162D03*
X0190161Y0015422D03*
D15*
X0130045Y0042036D02*
X0124845Y0042036D01*
X0124845Y0052036D02*
X0130045Y0052036D01*
X0130045Y0062036D02*
X0124845Y0062036D01*
X0124845Y0072036D02*
X0130045Y0072036D01*
X0130045Y0082036D02*
X0124845Y0082036D01*
X0124845Y0092036D02*
X0130045Y0092036D01*
X0130045Y0102036D02*
X0124845Y0102036D01*
X0124845Y0112036D02*
X0130045Y0112036D01*
X0130045Y0122036D02*
X0124845Y0122036D01*
X0124845Y0132036D02*
X0130045Y0132036D01*
X0130045Y0142036D02*
X0124845Y0142036D01*
X0124845Y0152036D02*
X0130045Y0152036D01*
X0130045Y0162036D02*
X0124845Y0162036D01*
X0124845Y0172036D02*
X0130045Y0172036D01*
X0100045Y0172036D02*
X0094845Y0172036D01*
X0094845Y0162036D02*
X0100045Y0162036D01*
X0100045Y0152036D02*
X0094845Y0152036D01*
X0094845Y0142036D02*
X0100045Y0142036D01*
X0100045Y0132036D02*
X0094845Y0132036D01*
X0094845Y0122036D02*
X0100045Y0122036D01*
X0100045Y0112036D02*
X0094845Y0112036D01*
X0094845Y0102036D02*
X0100045Y0102036D01*
X0100045Y0092036D02*
X0094845Y0092036D01*
X0094845Y0082036D02*
X0100045Y0082036D01*
X0100045Y0072036D02*
X0094845Y0072036D01*
X0094845Y0062036D02*
X0100045Y0062036D01*
X0100045Y0052036D02*
X0094845Y0052036D01*
X0094845Y0042036D02*
X0100045Y0042036D01*
D16*
X0080083Y0082115D03*
X0080083Y0092115D03*
X0080083Y0102115D03*
X0017327Y0038257D03*
X0017327Y0018257D03*
X0012445Y0073099D03*
X0012445Y0083099D03*
X0012445Y0093099D03*
X0012445Y0103099D03*
X0012445Y0113099D03*
X0012445Y0123099D03*
X0012445Y0133099D03*
X0012445Y0143099D03*
X0012500Y0153686D03*
X0012500Y0163686D03*
X0012500Y0173686D03*
X0012500Y0183686D03*
X0012500Y0193686D03*
X0145988Y0189989D03*
X0165988Y0189989D03*
X0199945Y0143099D03*
X0199945Y0133099D03*
X0199945Y0123099D03*
X0199945Y0113099D03*
X0199945Y0103099D03*
X0199945Y0093099D03*
X0199945Y0083099D03*
X0199945Y0073099D03*
D17*
X0161539Y0017548D03*
X0130043Y0017548D03*
D18*
X0111480Y0017745D03*
X0103980Y0022745D03*
X0103980Y0012745D03*
M02*
