G75*
%MOIN*%
%OFA0B0*%
%FSLAX25Y25*%
%IPPOS*%
%LPD*%
%AMOC8*
5,1,8,0,0,1.08239X$1,22.5*
%
%ADD10C,0.00000*%
%ADD11OC8,0.05200*%
%ADD12C,0.05200*%
%ADD13C,0.05150*%
%ADD14C,0.11220*%
%ADD15C,0.05200*%
%ADD16C,0.07400*%
%ADD17C,0.05937*%
%ADD18OC8,0.06600*%
%ADD19C,0.00600*%
%ADD20C,0.02578*%
D10*
X0007445Y0008099D02*
X0007445Y0204950D01*
X0204295Y0204950D01*
X0204295Y0008099D01*
X0007445Y0008099D01*
D11*
X0037406Y0042509D03*
X0046201Y0025757D03*
X0046201Y0015757D03*
X0059453Y0015501D03*
X0059453Y0025501D03*
X0075201Y0032627D03*
X0077406Y0042509D03*
X0088823Y0023690D03*
X0088823Y0013690D03*
X0120909Y0012548D03*
X0120909Y0022548D03*
X0077524Y0069398D03*
X0037524Y0069398D03*
X0017406Y0058611D03*
X0017406Y0048611D03*
X0147130Y0077391D03*
X0136854Y0185107D03*
X0139728Y0197745D03*
X0099728Y0197745D03*
X0096854Y0185107D03*
X0183783Y0184871D03*
X0183783Y0194871D03*
D12*
X0147130Y0097391D03*
X0075201Y0012627D03*
D13*
X0137917Y0017548D03*
X0145791Y0017548D03*
X0153665Y0017548D03*
X0170083Y0023493D03*
X0174807Y0026643D03*
X0170083Y0029792D03*
X0174807Y0032942D03*
X0170083Y0036091D03*
D14*
X0190161Y0044162D03*
X0190161Y0015422D03*
D15*
X0130045Y0042036D02*
X0124845Y0042036D01*
X0124845Y0052036D02*
X0130045Y0052036D01*
X0130045Y0062036D02*
X0124845Y0062036D01*
X0124845Y0072036D02*
X0130045Y0072036D01*
X0130045Y0082036D02*
X0124845Y0082036D01*
X0124845Y0092036D02*
X0130045Y0092036D01*
X0130045Y0102036D02*
X0124845Y0102036D01*
X0124845Y0112036D02*
X0130045Y0112036D01*
X0130045Y0122036D02*
X0124845Y0122036D01*
X0124845Y0132036D02*
X0130045Y0132036D01*
X0130045Y0142036D02*
X0124845Y0142036D01*
X0124845Y0152036D02*
X0130045Y0152036D01*
X0130045Y0162036D02*
X0124845Y0162036D01*
X0124845Y0172036D02*
X0130045Y0172036D01*
X0100045Y0172036D02*
X0094845Y0172036D01*
X0094845Y0162036D02*
X0100045Y0162036D01*
X0100045Y0152036D02*
X0094845Y0152036D01*
X0094845Y0142036D02*
X0100045Y0142036D01*
X0100045Y0132036D02*
X0094845Y0132036D01*
X0094845Y0122036D02*
X0100045Y0122036D01*
X0100045Y0112036D02*
X0094845Y0112036D01*
X0094845Y0102036D02*
X0100045Y0102036D01*
X0100045Y0092036D02*
X0094845Y0092036D01*
X0094845Y0082036D02*
X0100045Y0082036D01*
X0100045Y0072036D02*
X0094845Y0072036D01*
X0094845Y0062036D02*
X0100045Y0062036D01*
X0100045Y0052036D02*
X0094845Y0052036D01*
X0094845Y0042036D02*
X0100045Y0042036D01*
D16*
X0080083Y0082115D03*
X0080083Y0092115D03*
X0080083Y0102115D03*
X0017327Y0038257D03*
X0017327Y0018257D03*
X0012445Y0073099D03*
X0012445Y0083099D03*
X0012445Y0093099D03*
X0012445Y0103099D03*
X0012445Y0113099D03*
X0012445Y0123099D03*
X0012445Y0133099D03*
X0012445Y0143099D03*
X0012500Y0153686D03*
X0012500Y0163686D03*
X0012500Y0173686D03*
X0012500Y0183686D03*
X0012500Y0193686D03*
X0145988Y0189989D03*
X0165988Y0189989D03*
X0199945Y0143099D03*
X0199945Y0133099D03*
X0199945Y0123099D03*
X0199945Y0113099D03*
X0199945Y0103099D03*
X0199945Y0093099D03*
X0199945Y0083099D03*
X0199945Y0073099D03*
D17*
X0161539Y0017548D03*
X0130043Y0017548D03*
D18*
X0111480Y0017745D03*
X0103980Y0022745D03*
X0103980Y0012745D03*
D19*
X0103035Y0013690D01*
X0088823Y0013690D01*
X0076264Y0013690D01*
X0075201Y0012627D01*
X0062327Y0012627D01*
X0059453Y0015501D01*
X0046457Y0015501D01*
X0046201Y0015757D01*
X0046201Y0020807D01*
X0049701Y0024307D01*
X0049701Y0047465D01*
X0040056Y0057110D01*
X0040056Y0066866D01*
X0037524Y0069398D01*
X0023823Y0083099D01*
X0012445Y0083099D01*
X0012445Y0103099D02*
X0033823Y0103099D01*
X0077524Y0069398D01*
X0094807Y0069398D01*
X0097445Y0072036D01*
X0097445Y0062036D02*
X0093508Y0058099D01*
X0042445Y0058099D01*
X0080083Y0082115D02*
X0080161Y0082036D01*
X0097445Y0082036D01*
X0097445Y0092036D02*
X0090161Y0092036D01*
X0080083Y0102115D01*
X0096382Y0113099D02*
X0012445Y0113099D01*
X0012445Y0123099D02*
X0096382Y0123099D01*
X0097445Y0122036D01*
X0096382Y0113099D02*
X0097445Y0112036D01*
X0103545Y0098136D02*
X0103545Y0060586D01*
X0097445Y0054486D01*
X0097445Y0052036D01*
X0097445Y0049586D01*
X0103545Y0043486D01*
X0103545Y0040586D01*
X0097445Y0034486D01*
X0097445Y0019280D01*
X0103980Y0012745D01*
X0111480Y0017745D02*
X0116677Y0012548D01*
X0120909Y0012548D01*
X0121461Y0013099D01*
X0132445Y0013099D01*
X0136894Y0017548D01*
X0137917Y0017548D01*
X0127445Y0028020D01*
X0127445Y0042036D01*
X0168508Y0083099D01*
X0199945Y0083099D01*
X0199945Y0093099D02*
X0168508Y0093099D01*
X0127445Y0052036D01*
X0127445Y0062036D02*
X0143630Y0078221D01*
X0143630Y0078840D01*
X0167889Y0103099D01*
X0199945Y0103099D01*
X0199945Y0113099D02*
X0168508Y0113099D01*
X0127445Y0072036D01*
X0127445Y0092036D02*
X0141776Y0092036D01*
X0147130Y0097391D01*
X0127445Y0122036D02*
X0117445Y0132036D01*
X0117445Y0168099D01*
X0121382Y0172036D01*
X0127445Y0172036D01*
X0136854Y0181446D01*
X0136854Y0185107D01*
X0137091Y0184871D01*
X0183783Y0184871D01*
X0183783Y0194871D02*
X0180909Y0197745D01*
X0139728Y0197745D01*
X0145988Y0189989D02*
X0144606Y0188607D01*
X0135405Y0188607D01*
X0131905Y0185107D01*
X0096854Y0185107D01*
X0092202Y0189759D01*
X0092202Y0195123D01*
X0089226Y0198099D01*
X0016913Y0198099D01*
X0012500Y0193686D01*
X0031382Y0162036D02*
X0097445Y0162036D01*
X0097445Y0152036D02*
X0031382Y0152036D01*
X0012445Y0133099D01*
X0012445Y0143099D02*
X0031382Y0162036D01*
X0086382Y0143099D02*
X0087445Y0143099D01*
X0086382Y0143099D02*
X0097445Y0132036D01*
X0097445Y0142036D02*
X0091382Y0148099D01*
X0087445Y0148099D01*
X0097445Y0172036D02*
X0097445Y0184517D01*
X0096854Y0185107D01*
X0127445Y0152036D02*
X0191008Y0152036D01*
X0199945Y0143099D01*
X0191008Y0142036D02*
X0199945Y0133099D01*
X0191008Y0132036D02*
X0199945Y0123099D01*
X0191008Y0132036D02*
X0127445Y0132036D01*
X0127445Y0142036D02*
X0191008Y0142036D01*
X0127445Y0122036D02*
X0103545Y0098136D01*
X0097445Y0062036D02*
X0093547Y0058139D01*
X0145791Y0017548D02*
X0164335Y0036091D01*
X0170083Y0036091D01*
D20*
X0087445Y0143099D03*
X0087445Y0148099D03*
X0042445Y0058099D03*
M02*
