G75*
%MOIN*%
%OFA0B0*%
%FSLAX25Y25*%
%IPPOS*%
%LPD*%
%AMOC8*
5,1,8,0,0,1.08239X$1,22.5*
%
%ADD10C,0.00000*%
%ADD11OC8,0.05200*%
%ADD12C,0.05200*%
%ADD13C,0.05150*%
%ADD14C,0.11220*%
%ADD15C,0.05200*%
%ADD16C,0.07400*%
%ADD17C,0.05937*%
%ADD18OC8,0.06600*%
%ADD19C,0.00600*%
%ADD20C,0.02578*%
D10*
X0007445Y0008099D02*
X0007445Y0204950D01*
X0204295Y0204950D01*
X0204295Y0008099D01*
X0007445Y0008099D01*
D11*
X0037406Y0042509D03*
X0046201Y0025757D03*
X0046201Y0015757D03*
X0059453Y0015501D03*
X0059453Y0025501D03*
X0075201Y0032627D03*
X0077406Y0042509D03*
X0088823Y0023690D03*
X0088823Y0013690D03*
X0120909Y0012548D03*
X0120909Y0022548D03*
X0077524Y0069398D03*
X0037524Y0069398D03*
X0017406Y0058611D03*
X0017406Y0048611D03*
X0147130Y0077391D03*
X0136854Y0185107D03*
X0139728Y0197745D03*
X0099728Y0197745D03*
X0096854Y0185107D03*
X0183783Y0184871D03*
X0183783Y0194871D03*
D12*
X0147130Y0097391D03*
X0075201Y0012627D03*
D13*
X0137917Y0017548D03*
X0145791Y0017548D03*
X0153665Y0017548D03*
X0170083Y0023493D03*
X0174807Y0026643D03*
X0170083Y0029792D03*
X0174807Y0032942D03*
X0170083Y0036091D03*
D14*
X0190161Y0044162D03*
X0190161Y0015422D03*
D15*
X0130045Y0042036D02*
X0124845Y0042036D01*
X0124845Y0052036D02*
X0130045Y0052036D01*
X0130045Y0062036D02*
X0124845Y0062036D01*
X0124845Y0072036D02*
X0130045Y0072036D01*
X0130045Y0082036D02*
X0124845Y0082036D01*
X0124845Y0092036D02*
X0130045Y0092036D01*
X0130045Y0102036D02*
X0124845Y0102036D01*
X0124845Y0112036D02*
X0130045Y0112036D01*
X0130045Y0122036D02*
X0124845Y0122036D01*
X0124845Y0132036D02*
X0130045Y0132036D01*
X0130045Y0142036D02*
X0124845Y0142036D01*
X0124845Y0152036D02*
X0130045Y0152036D01*
X0130045Y0162036D02*
X0124845Y0162036D01*
X0124845Y0172036D02*
X0130045Y0172036D01*
X0100045Y0172036D02*
X0094845Y0172036D01*
X0094845Y0162036D02*
X0100045Y0162036D01*
X0100045Y0152036D02*
X0094845Y0152036D01*
X0094845Y0142036D02*
X0100045Y0142036D01*
X0100045Y0132036D02*
X0094845Y0132036D01*
X0094845Y0122036D02*
X0100045Y0122036D01*
X0100045Y0112036D02*
X0094845Y0112036D01*
X0094845Y0102036D02*
X0100045Y0102036D01*
X0100045Y0092036D02*
X0094845Y0092036D01*
X0094845Y0082036D02*
X0100045Y0082036D01*
X0100045Y0072036D02*
X0094845Y0072036D01*
X0094845Y0062036D02*
X0100045Y0062036D01*
X0100045Y0052036D02*
X0094845Y0052036D01*
X0094845Y0042036D02*
X0100045Y0042036D01*
D16*
X0080083Y0082115D03*
X0080083Y0092115D03*
X0080083Y0102115D03*
X0017327Y0038257D03*
X0017327Y0018257D03*
X0012445Y0073099D03*
X0012445Y0083099D03*
X0012445Y0093099D03*
X0012445Y0103099D03*
X0012445Y0113099D03*
X0012445Y0123099D03*
X0012445Y0133099D03*
X0012445Y0143099D03*
X0012500Y0153686D03*
X0012500Y0163686D03*
X0012500Y0173686D03*
X0012500Y0183686D03*
X0012500Y0193686D03*
X0145988Y0189989D03*
X0165988Y0189989D03*
X0199945Y0143099D03*
X0199945Y0133099D03*
X0199945Y0123099D03*
X0199945Y0113099D03*
X0199945Y0103099D03*
X0199945Y0093099D03*
X0199945Y0083099D03*
X0199945Y0073099D03*
D17*
X0161539Y0017548D03*
X0130043Y0017548D03*
D18*
X0111480Y0017745D03*
X0103980Y0022745D03*
X0103980Y0012745D03*
D19*
X0099180Y0013099D02*
X0092923Y0013099D01*
X0092923Y0015388D01*
X0090521Y0017790D01*
X0087125Y0017790D01*
X0084723Y0015388D01*
X0084723Y0013099D01*
X0079301Y0013099D01*
X0079301Y0013442D01*
X0078677Y0014949D01*
X0077523Y0016103D01*
X0076016Y0016727D01*
X0074385Y0016727D01*
X0072878Y0016103D01*
X0071725Y0014949D01*
X0071101Y0013442D01*
X0071101Y0013099D01*
X0062849Y0013099D01*
X0063553Y0013803D01*
X0063553Y0017199D01*
X0061151Y0019601D01*
X0057754Y0019601D01*
X0055353Y0017199D01*
X0055353Y0013803D01*
X0056056Y0013099D01*
X0049342Y0013099D01*
X0050301Y0014058D01*
X0050301Y0017455D01*
X0047899Y0019857D01*
X0044503Y0019857D01*
X0042101Y0017455D01*
X0042101Y0014058D01*
X0043060Y0013099D01*
X0018464Y0013099D01*
X0020272Y0013848D01*
X0021735Y0015311D01*
X0022527Y0017222D01*
X0022527Y0019291D01*
X0022052Y0020437D01*
X0038824Y0037209D01*
X0039601Y0037209D01*
X0068392Y0066000D01*
X0074135Y0066989D01*
X0075825Y0065298D01*
X0079222Y0065298D01*
X0081624Y0067700D01*
X0081624Y0071097D01*
X0079222Y0073498D01*
X0075825Y0073498D01*
X0073424Y0071097D01*
X0073424Y0070519D01*
X0067370Y0069477D01*
X0066778Y0069477D01*
X0066655Y0069354D01*
X0066483Y0069324D01*
X0066142Y0068841D01*
X0041505Y0044204D01*
X0041505Y0044207D01*
X0039104Y0046609D01*
X0035707Y0046609D01*
X0033407Y0044309D01*
X0024253Y0044309D01*
X0021505Y0047057D01*
X0021505Y0050309D01*
X0019104Y0052711D01*
X0015707Y0052711D01*
X0013306Y0050309D01*
X0013306Y0046913D01*
X0015707Y0044511D01*
X0018960Y0044511D01*
X0021708Y0041763D01*
X0022762Y0040709D01*
X0033407Y0040709D01*
X0035320Y0038796D01*
X0019507Y0022982D01*
X0018361Y0023457D01*
X0016292Y0023457D01*
X0014381Y0022665D01*
X0012918Y0021202D01*
X0012127Y0019291D01*
X0012127Y0017222D01*
X0012918Y0015311D01*
X0014381Y0013848D01*
X0016190Y0013099D01*
X0008945Y0013099D01*
X0008945Y0069528D01*
X0009188Y0069285D01*
X0009824Y0068823D01*
X0010526Y0068466D01*
X0011274Y0068222D01*
X0012051Y0068099D01*
X0012145Y0068099D01*
X0012145Y0072799D01*
X0012745Y0072799D01*
X0012745Y0068099D01*
X0012838Y0068099D01*
X0013616Y0068222D01*
X0014364Y0068466D01*
X0015065Y0068823D01*
X0015606Y0069215D01*
X0015606Y0062609D01*
X0013306Y0060309D01*
X0013306Y0056913D01*
X0015707Y0054511D01*
X0019104Y0054511D01*
X0021404Y0056811D01*
X0039960Y0056811D01*
X0040080Y0056519D01*
X0040865Y0055735D01*
X0041890Y0055310D01*
X0043000Y0055310D01*
X0044025Y0055735D01*
X0044809Y0056519D01*
X0045234Y0057544D01*
X0045234Y0058654D01*
X0044809Y0059679D01*
X0044025Y0060464D01*
X0043000Y0060888D01*
X0041890Y0060888D01*
X0040865Y0060464D01*
X0040812Y0060411D01*
X0021404Y0060411D01*
X0019205Y0062609D01*
X0019205Y0088884D01*
X0017170Y0090919D01*
X0017645Y0092065D01*
X0017645Y0094134D01*
X0016853Y0096045D01*
X0015390Y0097508D01*
X0013962Y0098099D01*
X0015390Y0098691D01*
X0016853Y0100154D01*
X0017645Y0102065D01*
X0017645Y0104134D01*
X0016853Y0106045D01*
X0015390Y0107508D01*
X0013962Y0108099D01*
X0015390Y0108691D01*
X0016853Y0110154D01*
X0017645Y0112065D01*
X0017645Y0114134D01*
X0016853Y0116045D01*
X0015390Y0117508D01*
X0013962Y0118099D01*
X0015390Y0118691D01*
X0016853Y0120154D01*
X0017645Y0122065D01*
X0017645Y0124134D01*
X0016853Y0126045D01*
X0015390Y0127508D01*
X0013962Y0128099D01*
X0015390Y0128691D01*
X0016853Y0130154D01*
X0017645Y0132065D01*
X0017645Y0134134D01*
X0016853Y0136045D01*
X0015390Y0137508D01*
X0013962Y0138099D01*
X0015390Y0138691D01*
X0016853Y0140154D01*
X0017645Y0142065D01*
X0017645Y0144134D01*
X0016853Y0146045D01*
X0015390Y0147508D01*
X0013479Y0148299D01*
X0011411Y0148299D01*
X0009499Y0147508D01*
X0008945Y0146953D01*
X0008945Y0149887D01*
X0009554Y0149277D01*
X0011466Y0148486D01*
X0013534Y0148486D01*
X0015446Y0149277D01*
X0016908Y0150740D01*
X0017383Y0151886D01*
X0021714Y0151886D01*
X0085019Y0141667D01*
X0085080Y0141519D01*
X0085865Y0140735D01*
X0086890Y0140310D01*
X0088000Y0140310D01*
X0089025Y0140735D01*
X0089809Y0141519D01*
X0090234Y0142544D01*
X0090234Y0143654D01*
X0089809Y0144679D01*
X0089025Y0145464D01*
X0088697Y0145599D01*
X0089025Y0145735D01*
X0089809Y0146519D01*
X0090234Y0147544D01*
X0090234Y0148654D01*
X0089809Y0149679D01*
X0089025Y0150464D01*
X0088000Y0150888D01*
X0086890Y0150888D01*
X0085865Y0150464D01*
X0085753Y0150351D01*
X0022771Y0165319D01*
X0022604Y0165486D01*
X0022069Y0165486D01*
X0021549Y0165609D01*
X0021348Y0165486D01*
X0017383Y0165486D01*
X0016908Y0166631D01*
X0015446Y0168094D01*
X0013698Y0168818D01*
X0014419Y0169052D01*
X0015121Y0169409D01*
X0015757Y0169872D01*
X0016314Y0170429D01*
X0016776Y0171065D01*
X0017134Y0171766D01*
X0017377Y0172515D01*
X0017500Y0173292D01*
X0017500Y0173386D01*
X0012800Y0173386D01*
X0012800Y0173986D01*
X0017500Y0173986D01*
X0017500Y0174079D01*
X0017377Y0174857D01*
X0017134Y0175605D01*
X0016776Y0176306D01*
X0016314Y0176943D01*
X0015757Y0177500D01*
X0015121Y0177962D01*
X0014419Y0178320D01*
X0013698Y0178554D01*
X0014680Y0178960D01*
X0018850Y0174791D01*
X0019904Y0173736D01*
X0091111Y0173736D01*
X0090745Y0172852D01*
X0090745Y0171221D01*
X0091369Y0169714D01*
X0092522Y0168560D01*
X0094029Y0167936D01*
X0100860Y0167936D01*
X0102367Y0168560D01*
X0103521Y0169714D01*
X0103887Y0170598D01*
X0104249Y0170236D01*
X0121153Y0170236D01*
X0121369Y0169714D01*
X0122522Y0168560D01*
X0124029Y0167936D01*
X0130860Y0167936D01*
X0132367Y0168560D01*
X0133521Y0169714D01*
X0134145Y0171221D01*
X0134145Y0172852D01*
X0133521Y0174359D01*
X0132367Y0175512D01*
X0130860Y0176136D01*
X0124029Y0176136D01*
X0122522Y0175512D01*
X0121369Y0174359D01*
X0121153Y0173836D01*
X0105740Y0173836D01*
X0103295Y0176282D01*
X0102240Y0177336D01*
X0021395Y0177336D01*
X0017225Y0181506D01*
X0017700Y0182651D01*
X0017700Y0184720D01*
X0016908Y0186631D01*
X0015446Y0188094D01*
X0014017Y0188686D01*
X0015446Y0189277D01*
X0016908Y0190740D01*
X0017700Y0192651D01*
X0017700Y0194720D01*
X0016908Y0196631D01*
X0015446Y0198094D01*
X0013534Y0198886D01*
X0011466Y0198886D01*
X0009554Y0198094D01*
X0008945Y0197485D01*
X0008945Y0203099D01*
X0202445Y0203099D01*
X0202445Y0147692D01*
X0200979Y0148299D01*
X0198911Y0148299D01*
X0196999Y0147508D01*
X0195537Y0146045D01*
X0194745Y0144134D01*
X0194745Y0142065D01*
X0195537Y0140154D01*
X0196999Y0138691D01*
X0198428Y0138099D01*
X0196999Y0137508D01*
X0195537Y0136045D01*
X0194745Y0134134D01*
X0194745Y0132065D01*
X0195537Y0130154D01*
X0196999Y0128691D01*
X0198428Y0128099D01*
X0196999Y0127508D01*
X0195537Y0126045D01*
X0194745Y0124134D01*
X0194745Y0122065D01*
X0195537Y0120154D01*
X0196999Y0118691D01*
X0198428Y0118099D01*
X0196999Y0117508D01*
X0195537Y0116045D01*
X0194745Y0114134D01*
X0194745Y0112065D01*
X0195537Y0110154D01*
X0196999Y0108691D01*
X0198428Y0108099D01*
X0196999Y0107508D01*
X0195537Y0106045D01*
X0194745Y0104134D01*
X0194745Y0102065D01*
X0195537Y0100154D01*
X0196999Y0098691D01*
X0198428Y0098099D01*
X0196999Y0097508D01*
X0195537Y0096045D01*
X0194745Y0094134D01*
X0194745Y0092065D01*
X0195537Y0090154D01*
X0196999Y0088691D01*
X0198428Y0088099D01*
X0196999Y0087508D01*
X0195537Y0086045D01*
X0194745Y0084134D01*
X0194745Y0082065D01*
X0195537Y0080154D01*
X0196999Y0078691D01*
X0198747Y0077967D01*
X0198026Y0077733D01*
X0197324Y0077376D01*
X0196688Y0076913D01*
X0196131Y0076356D01*
X0195668Y0075720D01*
X0195311Y0075019D01*
X0195068Y0074270D01*
X0194945Y0073493D01*
X0194945Y0073399D01*
X0199645Y0073399D01*
X0199645Y0072799D01*
X0200245Y0072799D01*
X0200245Y0068099D01*
X0200338Y0068099D01*
X0201116Y0068222D01*
X0201864Y0068466D01*
X0202445Y0068761D01*
X0202445Y0013099D01*
X0196895Y0013099D01*
X0197272Y0014008D01*
X0197272Y0016836D01*
X0196189Y0019450D01*
X0194189Y0021450D01*
X0191576Y0022532D01*
X0188747Y0022532D01*
X0186134Y0021450D01*
X0184134Y0019450D01*
X0183051Y0016836D01*
X0183051Y0014008D01*
X0183428Y0013099D01*
X0162476Y0013099D01*
X0164071Y0013760D01*
X0165328Y0015017D01*
X0166008Y0016659D01*
X0166008Y0018437D01*
X0165328Y0020079D01*
X0164071Y0021336D01*
X0162428Y0022017D01*
X0160651Y0022017D01*
X0159008Y0021336D01*
X0157751Y0020079D01*
X0157389Y0019206D01*
X0157120Y0019856D01*
X0155974Y0021002D01*
X0154476Y0021623D01*
X0152855Y0021623D01*
X0151357Y0021002D01*
X0150211Y0019856D01*
X0149728Y0018691D01*
X0149246Y0019856D01*
X0148100Y0021002D01*
X0146602Y0021623D01*
X0144981Y0021623D01*
X0143483Y0021002D01*
X0142337Y0019856D01*
X0141854Y0018691D01*
X0141372Y0019856D01*
X0140226Y0021002D01*
X0138728Y0021623D01*
X0137107Y0021623D01*
X0135609Y0021002D01*
X0134463Y0019856D01*
X0134193Y0019206D01*
X0133832Y0020079D01*
X0132575Y0021336D01*
X0130932Y0022017D01*
X0129154Y0022017D01*
X0127512Y0021336D01*
X0126255Y0020079D01*
X0125575Y0018437D01*
X0125575Y0016659D01*
X0126255Y0015017D01*
X0127512Y0013760D01*
X0129107Y0013099D01*
X0125009Y0013099D01*
X0125009Y0014246D01*
X0122608Y0016648D01*
X0119211Y0016648D01*
X0116809Y0014246D01*
X0116809Y0013099D01*
X0113623Y0013099D01*
X0116280Y0015757D01*
X0116280Y0019733D01*
X0113469Y0022545D01*
X0109492Y0022545D01*
X0108580Y0021633D01*
X0108580Y0022445D01*
X0104280Y0022445D01*
X0104280Y0018145D01*
X0105886Y0018145D01*
X0106680Y0018940D01*
X0106680Y0016833D01*
X0105969Y0017545D01*
X0101992Y0017545D01*
X0099180Y0014733D01*
X0099180Y0013099D01*
X0099180Y0013486D02*
X0092923Y0013486D01*
X0092923Y0014084D02*
X0099180Y0014084D01*
X0099180Y0014683D02*
X0092923Y0014683D01*
X0092923Y0015281D02*
X0099729Y0015281D01*
X0100327Y0015880D02*
X0092431Y0015880D01*
X0091832Y0016478D02*
X0100926Y0016478D01*
X0101524Y0017077D02*
X0091234Y0017077D01*
X0090635Y0017675D02*
X0106680Y0017675D01*
X0106680Y0017077D02*
X0106437Y0017077D01*
X0106680Y0018274D02*
X0106015Y0018274D01*
X0106613Y0018872D02*
X0106680Y0018872D01*
X0104280Y0018872D02*
X0103680Y0018872D01*
X0103680Y0018274D02*
X0104280Y0018274D01*
X0103680Y0018145D02*
X0103680Y0022445D01*
X0099380Y0022445D01*
X0099380Y0020839D01*
X0102075Y0018145D01*
X0103680Y0018145D01*
X0103680Y0019471D02*
X0104280Y0019471D01*
X0104280Y0020069D02*
X0103680Y0020069D01*
X0103680Y0020668D02*
X0104280Y0020668D01*
X0104280Y0021266D02*
X0103680Y0021266D01*
X0103680Y0021865D02*
X0104280Y0021865D01*
X0104280Y0022445D02*
X0103680Y0022445D01*
X0103680Y0023045D01*
X0099380Y0023045D01*
X0099380Y0024650D01*
X0102075Y0027345D01*
X0103680Y0027345D01*
X0103680Y0023045D01*
X0104280Y0023045D01*
X0104280Y0027345D01*
X0105886Y0027345D01*
X0108580Y0024650D01*
X0108580Y0023045D01*
X0104280Y0023045D01*
X0104280Y0022445D01*
X0104280Y0022463D02*
X0109411Y0022463D01*
X0108812Y0021865D02*
X0108580Y0021865D01*
X0108580Y0023062D02*
X0117009Y0023062D01*
X0117009Y0022848D02*
X0120609Y0022848D01*
X0120609Y0022248D01*
X0117009Y0022248D01*
X0117009Y0020933D01*
X0119294Y0018648D01*
X0120609Y0018648D01*
X0120609Y0022248D01*
X0121209Y0022248D01*
X0121209Y0018648D01*
X0122525Y0018648D01*
X0124809Y0020933D01*
X0124809Y0022248D01*
X0121209Y0022248D01*
X0121209Y0022848D01*
X0124809Y0022848D01*
X0124809Y0024163D01*
X0124130Y0024843D01*
X0161273Y0024843D01*
X0167898Y0018218D01*
X0172268Y0018218D01*
X0174303Y0020254D01*
X0175357Y0021308D01*
X0175357Y0022568D01*
X0175618Y0022568D01*
X0177115Y0023188D01*
X0178262Y0024334D01*
X0178882Y0025832D01*
X0178882Y0027453D01*
X0178262Y0028951D01*
X0177420Y0029792D01*
X0178262Y0030634D01*
X0178882Y0032131D01*
X0178882Y0033752D01*
X0178262Y0035250D01*
X0177115Y0036396D01*
X0175618Y0037017D01*
X0175357Y0037017D01*
X0175357Y0064219D01*
X0146266Y0093311D01*
X0146314Y0093291D01*
X0147945Y0093291D01*
X0149452Y0093915D01*
X0150606Y0095068D01*
X0151230Y0096575D01*
X0151230Y0098206D01*
X0150606Y0099713D01*
X0149452Y0100866D01*
X0147945Y0101491D01*
X0146314Y0101491D01*
X0144807Y0100866D01*
X0143654Y0099713D01*
X0143030Y0098206D01*
X0143030Y0096575D01*
X0143050Y0096526D01*
X0131412Y0108165D01*
X0132367Y0108560D01*
X0133521Y0109714D01*
X0134145Y0111221D01*
X0134145Y0112852D01*
X0133521Y0114359D01*
X0132367Y0115512D01*
X0130860Y0116136D01*
X0124029Y0116136D01*
X0122522Y0115512D01*
X0121369Y0114359D01*
X0120745Y0112852D01*
X0120745Y0111221D01*
X0121369Y0109714D01*
X0122522Y0108560D01*
X0124029Y0107936D01*
X0126549Y0107936D01*
X0128349Y0106136D01*
X0124029Y0106136D01*
X0122522Y0105512D01*
X0121369Y0104359D01*
X0120745Y0102852D01*
X0120745Y0101221D01*
X0121369Y0099714D01*
X0122522Y0098560D01*
X0124029Y0097936D01*
X0128999Y0097936D01*
X0130799Y0096136D01*
X0124029Y0096136D01*
X0122522Y0095512D01*
X0121369Y0094359D01*
X0120745Y0092852D01*
X0120745Y0091221D01*
X0121369Y0089714D01*
X0122522Y0088560D01*
X0124029Y0087936D01*
X0130860Y0087936D01*
X0132367Y0088560D01*
X0133521Y0089714D01*
X0134145Y0091221D01*
X0134145Y0092791D01*
X0145645Y0081291D01*
X0145514Y0081291D01*
X0143230Y0079006D01*
X0143230Y0077691D01*
X0146830Y0077691D01*
X0146830Y0077091D01*
X0143230Y0077091D01*
X0143230Y0075775D01*
X0145514Y0073491D01*
X0146830Y0073491D01*
X0146830Y0077090D01*
X0147430Y0077090D01*
X0147430Y0073491D01*
X0148745Y0073491D01*
X0151030Y0075775D01*
X0151030Y0075906D01*
X0164808Y0062128D01*
X0164808Y0033906D01*
X0165862Y0032852D01*
X0166624Y0032090D01*
X0166008Y0030603D01*
X0166008Y0028982D01*
X0166628Y0027484D01*
X0167611Y0026501D01*
X0167073Y0025963D01*
X0166649Y0025328D01*
X0166423Y0024784D01*
X0162765Y0028443D01*
X0113584Y0028443D01*
X0102917Y0039110D01*
X0103521Y0039714D01*
X0104145Y0041221D01*
X0104145Y0042852D01*
X0103521Y0044359D01*
X0102367Y0045512D01*
X0100860Y0046136D01*
X0094029Y0046136D01*
X0092522Y0045512D01*
X0091369Y0044359D01*
X0090745Y0042852D01*
X0090745Y0041221D01*
X0091369Y0039714D01*
X0092522Y0038560D01*
X0094029Y0037936D01*
X0098999Y0037936D01*
X0111039Y0025897D01*
X0112093Y0024843D01*
X0117689Y0024843D01*
X0117009Y0024163D01*
X0117009Y0022848D01*
X0117009Y0023661D02*
X0108580Y0023661D01*
X0108580Y0024259D02*
X0117105Y0024259D01*
X0117009Y0021865D02*
X0114148Y0021865D01*
X0113550Y0022463D02*
X0120609Y0022463D01*
X0120609Y0021865D02*
X0121209Y0021865D01*
X0121209Y0022463D02*
X0163652Y0022463D01*
X0164251Y0021865D02*
X0162794Y0021865D01*
X0163054Y0023062D02*
X0124809Y0023062D01*
X0124809Y0023661D02*
X0162455Y0023661D01*
X0161857Y0024259D02*
X0124714Y0024259D01*
X0124809Y0021865D02*
X0128789Y0021865D01*
X0127442Y0021266D02*
X0124809Y0021266D01*
X0124545Y0020668D02*
X0126844Y0020668D01*
X0126251Y0020069D02*
X0123946Y0020069D01*
X0123348Y0019471D02*
X0126003Y0019471D01*
X0125755Y0018872D02*
X0122749Y0018872D01*
X0121209Y0018872D02*
X0120609Y0018872D01*
X0120609Y0019471D02*
X0121209Y0019471D01*
X0121209Y0020069D02*
X0120609Y0020069D01*
X0120609Y0020668D02*
X0121209Y0020668D01*
X0121209Y0021266D02*
X0120609Y0021266D01*
X0118471Y0019471D02*
X0116280Y0019471D01*
X0116280Y0018872D02*
X0119070Y0018872D01*
X0117873Y0020069D02*
X0115944Y0020069D01*
X0115345Y0020668D02*
X0117274Y0020668D01*
X0117009Y0021266D02*
X0114747Y0021266D01*
X0116280Y0018274D02*
X0125575Y0018274D01*
X0125575Y0017675D02*
X0116280Y0017675D01*
X0116280Y0017077D02*
X0125575Y0017077D01*
X0125650Y0016478D02*
X0122777Y0016478D01*
X0123376Y0015880D02*
X0125898Y0015880D01*
X0126146Y0015281D02*
X0123974Y0015281D01*
X0124573Y0014683D02*
X0126589Y0014683D01*
X0127188Y0014084D02*
X0125009Y0014084D01*
X0125009Y0013486D02*
X0128174Y0013486D01*
X0134083Y0019471D02*
X0134303Y0019471D01*
X0134676Y0020069D02*
X0133836Y0020069D01*
X0133243Y0020668D02*
X0135275Y0020668D01*
X0136246Y0021266D02*
X0132644Y0021266D01*
X0131298Y0021865D02*
X0160285Y0021865D01*
X0158938Y0021266D02*
X0155336Y0021266D01*
X0156308Y0020668D02*
X0158340Y0020668D01*
X0157747Y0020069D02*
X0156907Y0020069D01*
X0157279Y0019471D02*
X0157499Y0019471D01*
X0151994Y0021266D02*
X0147462Y0021266D01*
X0148434Y0020668D02*
X0151023Y0020668D01*
X0150424Y0020069D02*
X0149033Y0020069D01*
X0149405Y0019471D02*
X0150051Y0019471D01*
X0149803Y0018872D02*
X0149653Y0018872D01*
X0144120Y0021266D02*
X0139588Y0021266D01*
X0140560Y0020668D02*
X0143149Y0020668D01*
X0142550Y0020069D02*
X0141159Y0020069D01*
X0141531Y0019471D02*
X0142177Y0019471D01*
X0141929Y0018872D02*
X0141779Y0018872D01*
X0132367Y0038560D02*
X0130860Y0037936D01*
X0124029Y0037936D01*
X0122522Y0038560D01*
X0121369Y0039714D01*
X0120745Y0041221D01*
X0120745Y0042852D01*
X0121369Y0044359D01*
X0122522Y0045512D01*
X0124029Y0046136D01*
X0130860Y0046136D01*
X0132367Y0045512D01*
X0133521Y0044359D01*
X0134145Y0042852D01*
X0134145Y0041221D01*
X0133521Y0039714D01*
X0132367Y0038560D01*
X0132430Y0038623D02*
X0164808Y0038623D01*
X0164808Y0038025D02*
X0131074Y0038025D01*
X0133029Y0039222D02*
X0164808Y0039222D01*
X0164808Y0039820D02*
X0133565Y0039820D01*
X0133813Y0040419D02*
X0164808Y0040419D01*
X0164808Y0041017D02*
X0134061Y0041017D01*
X0134145Y0041616D02*
X0164808Y0041616D01*
X0164808Y0042214D02*
X0134145Y0042214D01*
X0134145Y0042813D02*
X0164808Y0042813D01*
X0164808Y0043411D02*
X0133913Y0043411D01*
X0133665Y0044010D02*
X0164808Y0044010D01*
X0164808Y0044608D02*
X0133271Y0044608D01*
X0132672Y0045207D02*
X0164808Y0045207D01*
X0164808Y0045805D02*
X0131659Y0045805D01*
X0130860Y0047936D02*
X0132367Y0048560D01*
X0133521Y0049714D01*
X0134145Y0051221D01*
X0134145Y0052852D01*
X0133521Y0054359D01*
X0132367Y0055512D01*
X0130860Y0056136D01*
X0124029Y0056136D01*
X0122522Y0055512D01*
X0121369Y0054359D01*
X0120745Y0052852D01*
X0120745Y0051221D01*
X0121369Y0049714D01*
X0122522Y0048560D01*
X0124029Y0047936D01*
X0130860Y0047936D01*
X0131496Y0048199D02*
X0164808Y0048199D01*
X0164808Y0047601D02*
X0049993Y0047601D01*
X0049395Y0047002D02*
X0164808Y0047002D01*
X0164808Y0046404D02*
X0079026Y0046404D01*
X0079021Y0046409D02*
X0077705Y0046409D01*
X0077705Y0042809D01*
X0077106Y0042809D01*
X0077106Y0046409D01*
X0075790Y0046409D01*
X0073506Y0044124D01*
X0073505Y0042809D01*
X0077105Y0042809D01*
X0077105Y0042209D01*
X0073506Y0042209D01*
X0073506Y0040893D01*
X0075790Y0038609D01*
X0077106Y0038609D01*
X0077106Y0042209D01*
X0077705Y0042209D01*
X0077705Y0038609D01*
X0079021Y0038609D01*
X0081305Y0040893D01*
X0081305Y0042209D01*
X0077706Y0042209D01*
X0077706Y0042809D01*
X0081305Y0042809D01*
X0081305Y0044124D01*
X0079021Y0046409D01*
X0079624Y0045805D02*
X0093231Y0045805D01*
X0093395Y0045536D02*
X0144822Y0045536D01*
X0147830Y0045536D01*
X0167507Y0025858D01*
X0166697Y0026603D01*
X0166861Y0027252D02*
X0163955Y0027252D01*
X0163357Y0027850D02*
X0166477Y0027850D01*
X0166229Y0028449D02*
X0113578Y0028449D01*
X0112980Y0029047D02*
X0166008Y0029047D01*
X0166008Y0029646D02*
X0112381Y0029646D01*
X0111783Y0030244D02*
X0166008Y0030244D01*
X0166107Y0030843D02*
X0111184Y0030843D01*
X0110586Y0031441D02*
X0166355Y0031441D01*
X0166603Y0032040D02*
X0109987Y0032040D01*
X0109388Y0032638D02*
X0166076Y0032638D01*
X0165478Y0033237D02*
X0108790Y0033237D01*
X0108191Y0033835D02*
X0164879Y0033835D01*
X0164808Y0034434D02*
X0107593Y0034434D01*
X0106994Y0035032D02*
X0164808Y0035032D01*
X0164808Y0035631D02*
X0106396Y0035631D01*
X0105797Y0036229D02*
X0164808Y0036229D01*
X0164808Y0036828D02*
X0105199Y0036828D01*
X0104600Y0037426D02*
X0164808Y0037426D01*
X0166608Y0034652D02*
X0166608Y0062873D01*
X0127445Y0102036D01*
X0128230Y0106255D02*
X0083296Y0106255D01*
X0083028Y0106523D02*
X0081117Y0107315D01*
X0079048Y0107315D01*
X0077137Y0106523D01*
X0075674Y0105061D01*
X0074883Y0103149D01*
X0074883Y0101081D01*
X0075674Y0099169D01*
X0077137Y0097707D01*
X0078884Y0096983D01*
X0078163Y0096749D01*
X0077462Y0096391D01*
X0076825Y0095929D01*
X0076269Y0095372D01*
X0075806Y0094736D01*
X0075449Y0094034D01*
X0075206Y0093286D01*
X0075083Y0092508D01*
X0075083Y0092415D01*
X0079783Y0092415D01*
X0079783Y0091815D01*
X0075083Y0091815D01*
X0075083Y0091721D01*
X0075206Y0090944D01*
X0075449Y0090196D01*
X0075806Y0089494D01*
X0076269Y0088858D01*
X0076825Y0088301D01*
X0077462Y0087839D01*
X0078163Y0087481D01*
X0078884Y0087247D01*
X0077137Y0086523D01*
X0075674Y0085061D01*
X0074883Y0083149D01*
X0074883Y0081081D01*
X0075674Y0079169D01*
X0077137Y0077707D01*
X0079048Y0076915D01*
X0081117Y0076915D01*
X0083028Y0077707D01*
X0084491Y0079169D01*
X0085283Y0081081D01*
X0085283Y0083149D01*
X0084491Y0085061D01*
X0083028Y0086523D01*
X0081281Y0087247D01*
X0082002Y0087481D01*
X0082703Y0087839D01*
X0083340Y0088301D01*
X0083896Y0088858D01*
X0084359Y0089494D01*
X0084716Y0090196D01*
X0084960Y0090944D01*
X0085083Y0091721D01*
X0085083Y0091815D01*
X0080383Y0091815D01*
X0080383Y0092415D01*
X0085083Y0092415D01*
X0085083Y0092508D01*
X0084960Y0093286D01*
X0084716Y0094034D01*
X0084359Y0094736D01*
X0083896Y0095372D01*
X0083340Y0095929D01*
X0082703Y0096391D01*
X0082002Y0096749D01*
X0081281Y0096983D01*
X0083028Y0097707D01*
X0084491Y0099169D01*
X0085283Y0101081D01*
X0085283Y0103149D01*
X0084491Y0105061D01*
X0083028Y0106523D01*
X0082231Y0106854D02*
X0127632Y0106854D01*
X0127033Y0107452D02*
X0015446Y0107452D01*
X0016044Y0106854D02*
X0077934Y0106854D01*
X0076869Y0106255D02*
X0016643Y0106255D01*
X0017014Y0105657D02*
X0076270Y0105657D01*
X0075673Y0105058D02*
X0017262Y0105058D01*
X0017510Y0104460D02*
X0075425Y0104460D01*
X0075177Y0103861D02*
X0017645Y0103861D01*
X0017645Y0103263D02*
X0074930Y0103263D01*
X0074883Y0102664D02*
X0017645Y0102664D01*
X0017645Y0102065D02*
X0074883Y0102065D01*
X0074883Y0101467D02*
X0017397Y0101467D01*
X0017149Y0100868D02*
X0074971Y0100868D01*
X0075218Y0100270D02*
X0016901Y0100270D01*
X0016371Y0099671D02*
X0075466Y0099671D01*
X0075771Y0099073D02*
X0015773Y0099073D01*
X0014868Y0098474D02*
X0076369Y0098474D01*
X0076968Y0097876D02*
X0014501Y0097876D01*
X0015621Y0097277D02*
X0078173Y0097277D01*
X0078026Y0096679D02*
X0016219Y0096679D01*
X0016818Y0096080D02*
X0077034Y0096080D01*
X0076379Y0095482D02*
X0017086Y0095482D01*
X0017334Y0094883D02*
X0075914Y0094883D01*
X0075577Y0094285D02*
X0017582Y0094285D01*
X0017645Y0093686D02*
X0075336Y0093686D01*
X0075174Y0093088D02*
X0017645Y0093088D01*
X0017645Y0092489D02*
X0075083Y0092489D01*
X0075151Y0091292D02*
X0017325Y0091292D01*
X0017396Y0090694D02*
X0075287Y0090694D01*
X0075500Y0090095D02*
X0017994Y0090095D01*
X0018593Y0089497D02*
X0075805Y0089497D01*
X0076239Y0088898D02*
X0019191Y0088898D01*
X0019205Y0088300D02*
X0076827Y0088300D01*
X0077732Y0087701D02*
X0019205Y0087701D01*
X0019205Y0087103D02*
X0078536Y0087103D01*
X0077118Y0086504D02*
X0019205Y0086504D01*
X0019205Y0085906D02*
X0076519Y0085906D01*
X0075921Y0085307D02*
X0019205Y0085307D01*
X0019205Y0084709D02*
X0075529Y0084709D01*
X0075281Y0084110D02*
X0019205Y0084110D01*
X0019205Y0083512D02*
X0075033Y0083512D01*
X0074883Y0082913D02*
X0019205Y0082913D01*
X0019205Y0082315D02*
X0074883Y0082315D01*
X0074883Y0081716D02*
X0019205Y0081716D01*
X0019205Y0081118D02*
X0074883Y0081118D01*
X0075115Y0080519D02*
X0019205Y0080519D01*
X0019205Y0079921D02*
X0075363Y0079921D01*
X0075611Y0079322D02*
X0019205Y0079322D01*
X0019205Y0078724D02*
X0076120Y0078724D01*
X0076719Y0078125D02*
X0019205Y0078125D01*
X0019205Y0077527D02*
X0077572Y0077527D01*
X0079017Y0076928D02*
X0019205Y0076928D01*
X0019205Y0076330D02*
X0143230Y0076330D01*
X0143230Y0076928D02*
X0081149Y0076928D01*
X0082593Y0077527D02*
X0146830Y0077527D01*
X0146830Y0076928D02*
X0147430Y0076928D01*
X0147430Y0076330D02*
X0146830Y0076330D01*
X0146830Y0075731D02*
X0147430Y0075731D01*
X0147430Y0075132D02*
X0146830Y0075132D01*
X0146830Y0074534D02*
X0147430Y0074534D01*
X0147430Y0073935D02*
X0146830Y0073935D01*
X0145070Y0073935D02*
X0133696Y0073935D01*
X0133521Y0074359D02*
X0132367Y0075512D01*
X0130860Y0076136D01*
X0124029Y0076136D01*
X0122522Y0075512D01*
X0121369Y0074359D01*
X0120745Y0072852D01*
X0120745Y0071221D01*
X0121369Y0069714D01*
X0122522Y0068560D01*
X0124029Y0067936D01*
X0130860Y0067936D01*
X0132367Y0068560D01*
X0133521Y0069714D01*
X0134145Y0071221D01*
X0134145Y0072852D01*
X0133521Y0074359D01*
X0133345Y0074534D02*
X0144471Y0074534D01*
X0143873Y0075132D02*
X0132747Y0075132D01*
X0131839Y0075731D02*
X0143274Y0075731D01*
X0143230Y0078125D02*
X0101316Y0078125D01*
X0100860Y0077936D02*
X0102367Y0078560D01*
X0103521Y0079714D01*
X0104145Y0081221D01*
X0104145Y0082852D01*
X0103521Y0084359D01*
X0102367Y0085512D01*
X0100860Y0086136D01*
X0094029Y0086136D01*
X0092522Y0085512D01*
X0091369Y0084359D01*
X0090745Y0082852D01*
X0090745Y0081221D01*
X0091369Y0079714D01*
X0092522Y0078560D01*
X0094029Y0077936D01*
X0100860Y0077936D01*
X0100860Y0076136D02*
X0102367Y0075512D01*
X0103521Y0074359D01*
X0104145Y0072852D01*
X0104145Y0071221D01*
X0103521Y0069714D01*
X0102367Y0068560D01*
X0100860Y0067936D01*
X0094029Y0067936D01*
X0092522Y0068560D01*
X0091369Y0069714D01*
X0090745Y0071221D01*
X0090745Y0072852D01*
X0091369Y0074359D01*
X0092522Y0075512D01*
X0094029Y0076136D01*
X0100860Y0076136D01*
X0101839Y0075731D02*
X0123051Y0075731D01*
X0122143Y0075132D02*
X0102747Y0075132D01*
X0103345Y0074534D02*
X0121544Y0074534D01*
X0121194Y0073935D02*
X0103696Y0073935D01*
X0103944Y0073337D02*
X0120946Y0073337D01*
X0120745Y0072738D02*
X0104145Y0072738D01*
X0104145Y0072140D02*
X0120745Y0072140D01*
X0120745Y0071541D02*
X0104145Y0071541D01*
X0104030Y0070943D02*
X0120860Y0070943D01*
X0121108Y0070344D02*
X0103782Y0070344D01*
X0103534Y0069746D02*
X0121356Y0069746D01*
X0121935Y0069147D02*
X0102954Y0069147D01*
X0102339Y0068549D02*
X0122550Y0068549D01*
X0123995Y0067950D02*
X0100895Y0067950D01*
X0100860Y0066136D02*
X0102367Y0065512D01*
X0103521Y0064359D01*
X0104145Y0062852D01*
X0104145Y0061221D01*
X0103521Y0059714D01*
X0102367Y0058560D01*
X0100860Y0057936D01*
X0094029Y0057936D01*
X0092522Y0058560D01*
X0091369Y0059714D01*
X0090745Y0061221D01*
X0090745Y0062852D01*
X0091369Y0064359D01*
X0092522Y0065512D01*
X0094029Y0066136D01*
X0100860Y0066136D01*
X0102260Y0065556D02*
X0122629Y0065556D01*
X0122522Y0065512D02*
X0121369Y0064359D01*
X0120745Y0062852D01*
X0120745Y0061221D01*
X0121369Y0059714D01*
X0122522Y0058560D01*
X0124029Y0057936D01*
X0130860Y0057936D01*
X0132367Y0058560D01*
X0133521Y0059714D01*
X0134145Y0061221D01*
X0134145Y0062852D01*
X0133521Y0064359D01*
X0132367Y0065512D01*
X0130860Y0066136D01*
X0124029Y0066136D01*
X0122522Y0065512D01*
X0121968Y0064958D02*
X0102922Y0064958D01*
X0103520Y0064359D02*
X0121370Y0064359D01*
X0121121Y0063761D02*
X0103768Y0063761D01*
X0104016Y0063162D02*
X0120873Y0063162D01*
X0120745Y0062564D02*
X0104145Y0062564D01*
X0104145Y0061965D02*
X0120745Y0061965D01*
X0120745Y0061367D02*
X0104145Y0061367D01*
X0103957Y0060768D02*
X0120932Y0060768D01*
X0121180Y0060170D02*
X0103710Y0060170D01*
X0103378Y0059571D02*
X0121512Y0059571D01*
X0122110Y0058973D02*
X0102780Y0058973D01*
X0101918Y0058374D02*
X0122972Y0058374D01*
X0123653Y0055980D02*
X0101237Y0055980D01*
X0100860Y0056136D02*
X0102367Y0055512D01*
X0103521Y0054359D01*
X0104145Y0052852D01*
X0104145Y0051221D01*
X0103521Y0049714D01*
X0102367Y0048560D01*
X0100860Y0047936D01*
X0094029Y0047936D01*
X0092522Y0048560D01*
X0091369Y0049714D01*
X0090745Y0051221D01*
X0090745Y0052852D01*
X0091369Y0054359D01*
X0092522Y0055512D01*
X0094029Y0056136D01*
X0100860Y0056136D01*
X0102498Y0055382D02*
X0122392Y0055382D01*
X0121793Y0054783D02*
X0103096Y0054783D01*
X0103593Y0054185D02*
X0121297Y0054185D01*
X0121049Y0053586D02*
X0103841Y0053586D01*
X0104089Y0052988D02*
X0120801Y0052988D01*
X0120745Y0052389D02*
X0104145Y0052389D01*
X0104145Y0051791D02*
X0120745Y0051791D01*
X0120757Y0051192D02*
X0104133Y0051192D01*
X0103885Y0050594D02*
X0121005Y0050594D01*
X0121253Y0049995D02*
X0103637Y0049995D01*
X0103203Y0049396D02*
X0121686Y0049396D01*
X0122285Y0048798D02*
X0102605Y0048798D01*
X0101496Y0048199D02*
X0123394Y0048199D01*
X0123231Y0045805D02*
X0101659Y0045805D01*
X0102672Y0045207D02*
X0122217Y0045207D01*
X0121619Y0044608D02*
X0103271Y0044608D01*
X0103665Y0044010D02*
X0121225Y0044010D01*
X0120977Y0043411D02*
X0103913Y0043411D01*
X0104145Y0042813D02*
X0120745Y0042813D01*
X0120745Y0042214D02*
X0104145Y0042214D01*
X0104145Y0041616D02*
X0120745Y0041616D01*
X0120829Y0041017D02*
X0104061Y0041017D01*
X0103813Y0040419D02*
X0121077Y0040419D01*
X0121325Y0039820D02*
X0103565Y0039820D01*
X0103029Y0039222D02*
X0121861Y0039222D01*
X0122460Y0038623D02*
X0103403Y0038623D01*
X0104002Y0038025D02*
X0123816Y0038025D01*
X0132605Y0048798D02*
X0164808Y0048798D01*
X0164808Y0049396D02*
X0133203Y0049396D01*
X0133637Y0049995D02*
X0164808Y0049995D01*
X0164808Y0050594D02*
X0133885Y0050594D01*
X0134133Y0051192D02*
X0164808Y0051192D01*
X0164808Y0051791D02*
X0134145Y0051791D01*
X0134145Y0052389D02*
X0164808Y0052389D01*
X0164808Y0052988D02*
X0134089Y0052988D01*
X0133841Y0053586D02*
X0164808Y0053586D01*
X0164808Y0054185D02*
X0133593Y0054185D01*
X0133096Y0054783D02*
X0164808Y0054783D01*
X0164808Y0055382D02*
X0132498Y0055382D01*
X0131237Y0055980D02*
X0164808Y0055980D01*
X0164808Y0056579D02*
X0058971Y0056579D01*
X0059569Y0057177D02*
X0164808Y0057177D01*
X0164808Y0057776D02*
X0060168Y0057776D01*
X0060766Y0058374D02*
X0092972Y0058374D01*
X0092110Y0058973D02*
X0061365Y0058973D01*
X0061963Y0059571D02*
X0091512Y0059571D01*
X0091180Y0060170D02*
X0062562Y0060170D01*
X0063160Y0060768D02*
X0090932Y0060768D01*
X0090745Y0061367D02*
X0063759Y0061367D01*
X0064357Y0061965D02*
X0090745Y0061965D01*
X0090745Y0062564D02*
X0064956Y0062564D01*
X0065554Y0063162D02*
X0090873Y0063162D01*
X0091121Y0063761D02*
X0066153Y0063761D01*
X0066751Y0064359D02*
X0091370Y0064359D01*
X0091968Y0064958D02*
X0067350Y0064958D01*
X0067948Y0065556D02*
X0075567Y0065556D01*
X0074969Y0066155D02*
X0069291Y0066155D01*
X0067524Y0067677D02*
X0077524Y0069398D01*
X0074370Y0066753D02*
X0072768Y0066753D01*
X0072409Y0070344D02*
X0041624Y0070344D01*
X0041624Y0069746D02*
X0068932Y0069746D01*
X0067524Y0067677D02*
X0038855Y0039009D01*
X0038079Y0039009D01*
X0017327Y0018257D01*
X0022527Y0018274D02*
X0042920Y0018274D01*
X0043518Y0018872D02*
X0022527Y0018872D01*
X0022452Y0019471D02*
X0044117Y0019471D01*
X0044585Y0021857D02*
X0042301Y0024141D01*
X0042301Y0025457D01*
X0045901Y0025457D01*
X0045901Y0026057D01*
X0045901Y0029657D01*
X0044585Y0029657D01*
X0042301Y0027372D01*
X0042301Y0026057D01*
X0045901Y0026057D01*
X0046501Y0026057D01*
X0046501Y0029657D01*
X0047816Y0029657D01*
X0050101Y0027372D01*
X0050101Y0026057D01*
X0046501Y0026057D01*
X0046501Y0025457D01*
X0050101Y0025457D01*
X0050101Y0024141D01*
X0047816Y0021857D01*
X0046501Y0021857D01*
X0046501Y0025457D01*
X0045901Y0025457D01*
X0045901Y0021857D01*
X0044585Y0021857D01*
X0044577Y0021865D02*
X0023481Y0021865D01*
X0024079Y0022463D02*
X0043979Y0022463D01*
X0043380Y0023062D02*
X0024678Y0023062D01*
X0025276Y0023661D02*
X0042782Y0023661D01*
X0042301Y0024259D02*
X0025875Y0024259D01*
X0026473Y0024858D02*
X0042301Y0024858D01*
X0042301Y0025456D02*
X0027072Y0025456D01*
X0027670Y0026055D02*
X0045901Y0026055D01*
X0045901Y0026653D02*
X0046501Y0026653D01*
X0046501Y0026055D02*
X0055553Y0026055D01*
X0055553Y0025801D02*
X0059153Y0025801D01*
X0059153Y0029401D01*
X0057837Y0029401D01*
X0055553Y0027116D01*
X0055553Y0025801D01*
X0055553Y0025201D02*
X0055553Y0023885D01*
X0057837Y0021601D01*
X0059153Y0021601D01*
X0059153Y0025201D01*
X0059753Y0025201D01*
X0059753Y0025801D01*
X0063353Y0025801D01*
X0063353Y0027116D01*
X0061068Y0029401D01*
X0059753Y0029401D01*
X0059753Y0025801D01*
X0059153Y0025801D01*
X0059153Y0025201D01*
X0055553Y0025201D01*
X0055553Y0024858D02*
X0050101Y0024858D01*
X0050101Y0025456D02*
X0059153Y0025456D01*
X0059153Y0024858D02*
X0059753Y0024858D01*
X0059753Y0025201D02*
X0059753Y0021601D01*
X0061068Y0021601D01*
X0063353Y0023885D01*
X0063353Y0025201D01*
X0059753Y0025201D01*
X0059753Y0025456D02*
X0085074Y0025456D01*
X0084923Y0025305D02*
X0084923Y0023990D01*
X0088523Y0023990D01*
X0088523Y0027590D01*
X0087207Y0027590D01*
X0084923Y0025305D01*
X0084923Y0024858D02*
X0063353Y0024858D01*
X0063353Y0024259D02*
X0084923Y0024259D01*
X0084923Y0023390D02*
X0084923Y0022074D01*
X0087207Y0019790D01*
X0088523Y0019790D01*
X0088523Y0023390D01*
X0084923Y0023390D01*
X0084923Y0023062D02*
X0062529Y0023062D01*
X0061931Y0022463D02*
X0084923Y0022463D01*
X0085132Y0021865D02*
X0061332Y0021865D01*
X0059753Y0021865D02*
X0059153Y0021865D01*
X0059153Y0022463D02*
X0059753Y0022463D01*
X0059753Y0023062D02*
X0059153Y0023062D01*
X0059153Y0023661D02*
X0059753Y0023661D01*
X0059753Y0024259D02*
X0059153Y0024259D01*
X0059153Y0026055D02*
X0059753Y0026055D01*
X0059753Y0026653D02*
X0059153Y0026653D01*
X0059153Y0027252D02*
X0059753Y0027252D01*
X0059753Y0027850D02*
X0059153Y0027850D01*
X0059153Y0028449D02*
X0059753Y0028449D01*
X0059753Y0029047D02*
X0059153Y0029047D01*
X0057484Y0029047D02*
X0048426Y0029047D01*
X0049024Y0028449D02*
X0056885Y0028449D01*
X0056287Y0027850D02*
X0049623Y0027850D01*
X0050101Y0027252D02*
X0055688Y0027252D01*
X0055553Y0026653D02*
X0050101Y0026653D01*
X0050101Y0024259D02*
X0055553Y0024259D01*
X0055778Y0023661D02*
X0049620Y0023661D01*
X0049022Y0023062D02*
X0056376Y0023062D01*
X0056975Y0022463D02*
X0048423Y0022463D01*
X0047824Y0021865D02*
X0057573Y0021865D01*
X0057625Y0019471D02*
X0048285Y0019471D01*
X0048883Y0018872D02*
X0057026Y0018872D01*
X0056428Y0018274D02*
X0049482Y0018274D01*
X0050080Y0017675D02*
X0055829Y0017675D01*
X0055353Y0017077D02*
X0050301Y0017077D01*
X0050301Y0016478D02*
X0055353Y0016478D01*
X0055353Y0015880D02*
X0050301Y0015880D01*
X0050301Y0015281D02*
X0055353Y0015281D01*
X0055353Y0014683D02*
X0050301Y0014683D01*
X0050301Y0014084D02*
X0055353Y0014084D01*
X0055669Y0013486D02*
X0049728Y0013486D01*
X0042673Y0013486D02*
X0019397Y0013486D01*
X0020508Y0014084D02*
X0042101Y0014084D01*
X0042101Y0014683D02*
X0021107Y0014683D01*
X0021705Y0015281D02*
X0042101Y0015281D01*
X0042101Y0015880D02*
X0021971Y0015880D01*
X0022219Y0016478D02*
X0042101Y0016478D01*
X0042101Y0017077D02*
X0022466Y0017077D01*
X0022527Y0017675D02*
X0042321Y0017675D01*
X0045901Y0021865D02*
X0046501Y0021865D01*
X0046501Y0022463D02*
X0045901Y0022463D01*
X0045901Y0023062D02*
X0046501Y0023062D01*
X0046501Y0023661D02*
X0045901Y0023661D01*
X0045901Y0024259D02*
X0046501Y0024259D01*
X0046501Y0024858D02*
X0045901Y0024858D01*
X0045901Y0025456D02*
X0046501Y0025456D01*
X0046501Y0027252D02*
X0045901Y0027252D01*
X0045901Y0027850D02*
X0046501Y0027850D01*
X0046501Y0028449D02*
X0045901Y0028449D01*
X0045901Y0029047D02*
X0046501Y0029047D01*
X0046501Y0029646D02*
X0045901Y0029646D01*
X0044574Y0029646D02*
X0031261Y0029646D01*
X0031860Y0030244D02*
X0072068Y0030244D01*
X0072667Y0029646D02*
X0047827Y0029646D01*
X0043976Y0029047D02*
X0030663Y0029047D01*
X0030064Y0028449D02*
X0043377Y0028449D01*
X0042779Y0027850D02*
X0029466Y0027850D01*
X0028867Y0027252D02*
X0042301Y0027252D01*
X0042301Y0026653D02*
X0028269Y0026653D01*
X0024973Y0028449D02*
X0008945Y0028449D01*
X0008945Y0029047D02*
X0025572Y0029047D01*
X0026170Y0029646D02*
X0008945Y0029646D01*
X0008945Y0030244D02*
X0026769Y0030244D01*
X0027367Y0030843D02*
X0008945Y0030843D01*
X0008945Y0031441D02*
X0027966Y0031441D01*
X0028564Y0032040D02*
X0008945Y0032040D01*
X0008945Y0032638D02*
X0029163Y0032638D01*
X0029761Y0033237D02*
X0008945Y0033237D01*
X0008945Y0033835D02*
X0014991Y0033835D01*
X0014706Y0033980D02*
X0015407Y0033623D01*
X0016156Y0033380D01*
X0016933Y0033257D01*
X0017027Y0033257D01*
X0017027Y0037957D01*
X0012327Y0037957D01*
X0012327Y0037863D01*
X0012450Y0037086D01*
X0012693Y0036337D01*
X0013050Y0035636D01*
X0013513Y0034999D01*
X0014069Y0034443D01*
X0014706Y0033980D01*
X0014082Y0034434D02*
X0008945Y0034434D01*
X0008945Y0035032D02*
X0013489Y0035032D01*
X0013054Y0035631D02*
X0008945Y0035631D01*
X0008945Y0036229D02*
X0012748Y0036229D01*
X0012534Y0036828D02*
X0008945Y0036828D01*
X0008945Y0037426D02*
X0012396Y0037426D01*
X0012327Y0038557D02*
X0017027Y0038557D01*
X0017027Y0043257D01*
X0016933Y0043257D01*
X0016156Y0043134D01*
X0015407Y0042890D01*
X0014706Y0042533D01*
X0014069Y0042070D01*
X0013513Y0041514D01*
X0013050Y0040877D01*
X0012693Y0040176D01*
X0012450Y0039428D01*
X0012327Y0038650D01*
X0012327Y0038557D01*
X0012327Y0038623D02*
X0008945Y0038623D01*
X0008945Y0038025D02*
X0017027Y0038025D01*
X0017027Y0037957D02*
X0017027Y0038557D01*
X0017627Y0038557D01*
X0017627Y0043257D01*
X0017720Y0043257D01*
X0018498Y0043134D01*
X0019246Y0042890D01*
X0019947Y0042533D01*
X0020584Y0042070D01*
X0021141Y0041514D01*
X0021603Y0040877D01*
X0021960Y0040176D01*
X0022204Y0039428D01*
X0022327Y0038650D01*
X0022327Y0038557D01*
X0017627Y0038557D01*
X0017627Y0037957D01*
X0022327Y0037957D01*
X0022327Y0037863D01*
X0022204Y0037086D01*
X0021960Y0036337D01*
X0021603Y0035636D01*
X0021141Y0034999D01*
X0020584Y0034443D01*
X0019947Y0033980D01*
X0019246Y0033623D01*
X0018498Y0033380D01*
X0017720Y0033257D01*
X0017627Y0033257D01*
X0017627Y0037957D01*
X0017027Y0037957D01*
X0017027Y0037426D02*
X0017627Y0037426D01*
X0017627Y0036828D02*
X0017027Y0036828D01*
X0017027Y0036229D02*
X0017627Y0036229D01*
X0017627Y0035631D02*
X0017027Y0035631D01*
X0017027Y0035032D02*
X0017627Y0035032D01*
X0017627Y0034434D02*
X0017027Y0034434D01*
X0017027Y0033835D02*
X0017627Y0033835D01*
X0019663Y0033835D02*
X0030360Y0033835D01*
X0030958Y0034434D02*
X0020571Y0034434D01*
X0021164Y0035032D02*
X0031557Y0035032D01*
X0032155Y0035631D02*
X0021599Y0035631D01*
X0021905Y0036229D02*
X0032754Y0036229D01*
X0033352Y0036828D02*
X0022120Y0036828D01*
X0022258Y0037426D02*
X0033951Y0037426D01*
X0034549Y0038025D02*
X0017627Y0038025D01*
X0017627Y0038623D02*
X0017027Y0038623D01*
X0017027Y0039222D02*
X0017627Y0039222D01*
X0017627Y0039820D02*
X0017027Y0039820D01*
X0017027Y0040419D02*
X0017627Y0040419D01*
X0017627Y0041017D02*
X0017027Y0041017D01*
X0017027Y0041616D02*
X0017627Y0041616D01*
X0017627Y0042214D02*
X0017027Y0042214D01*
X0017027Y0042813D02*
X0017627Y0042813D01*
X0019398Y0042813D02*
X0020658Y0042813D01*
X0020386Y0042214D02*
X0021257Y0042214D01*
X0021039Y0041616D02*
X0021855Y0041616D01*
X0021501Y0041017D02*
X0022454Y0041017D01*
X0021837Y0040419D02*
X0033697Y0040419D01*
X0034296Y0039820D02*
X0022076Y0039820D01*
X0022236Y0039222D02*
X0034894Y0039222D01*
X0035148Y0038623D02*
X0022327Y0038623D01*
X0023508Y0042509D02*
X0037406Y0042509D01*
X0040506Y0045207D02*
X0042508Y0045207D01*
X0043106Y0045805D02*
X0039907Y0045805D01*
X0039308Y0046404D02*
X0043705Y0046404D01*
X0044303Y0047002D02*
X0021560Y0047002D01*
X0021505Y0047601D02*
X0044902Y0047601D01*
X0045501Y0048199D02*
X0021505Y0048199D01*
X0021505Y0048798D02*
X0046099Y0048798D01*
X0046698Y0049396D02*
X0021505Y0049396D01*
X0021505Y0049995D02*
X0047296Y0049995D01*
X0047895Y0050594D02*
X0021221Y0050594D01*
X0020623Y0051192D02*
X0048493Y0051192D01*
X0049092Y0051791D02*
X0020024Y0051791D01*
X0019426Y0052389D02*
X0049690Y0052389D01*
X0050289Y0052988D02*
X0008945Y0052988D01*
X0008945Y0053586D02*
X0050887Y0053586D01*
X0051486Y0054185D02*
X0008945Y0054185D01*
X0008945Y0054783D02*
X0015435Y0054783D01*
X0014837Y0055382D02*
X0008945Y0055382D01*
X0008945Y0055980D02*
X0014238Y0055980D01*
X0013640Y0056579D02*
X0008945Y0056579D01*
X0008945Y0057177D02*
X0013306Y0057177D01*
X0013306Y0057776D02*
X0008945Y0057776D01*
X0008945Y0058374D02*
X0013306Y0058374D01*
X0013306Y0058973D02*
X0008945Y0058973D01*
X0008945Y0059571D02*
X0013306Y0059571D01*
X0013306Y0060170D02*
X0008945Y0060170D01*
X0008945Y0060768D02*
X0013764Y0060768D01*
X0014363Y0061367D02*
X0008945Y0061367D01*
X0008945Y0061965D02*
X0014961Y0061965D01*
X0015560Y0062564D02*
X0008945Y0062564D01*
X0008945Y0063162D02*
X0015606Y0063162D01*
X0015606Y0063761D02*
X0008945Y0063761D01*
X0008945Y0064359D02*
X0015606Y0064359D01*
X0015606Y0064958D02*
X0008945Y0064958D01*
X0008945Y0065556D02*
X0015606Y0065556D01*
X0015606Y0066155D02*
X0008945Y0066155D01*
X0008945Y0066753D02*
X0015606Y0066753D01*
X0015606Y0067352D02*
X0008945Y0067352D01*
X0008945Y0067950D02*
X0015606Y0067950D01*
X0015606Y0068549D02*
X0014528Y0068549D01*
X0015512Y0069147D02*
X0015606Y0069147D01*
X0012745Y0069147D02*
X0012145Y0069147D01*
X0012145Y0068549D02*
X0012745Y0068549D01*
X0012745Y0069746D02*
X0012145Y0069746D01*
X0012145Y0070344D02*
X0012745Y0070344D01*
X0012745Y0070943D02*
X0012145Y0070943D01*
X0012145Y0071541D02*
X0012745Y0071541D01*
X0012745Y0072140D02*
X0012145Y0072140D01*
X0012145Y0072738D02*
X0012745Y0072738D01*
X0010362Y0068549D02*
X0008945Y0068549D01*
X0008945Y0069147D02*
X0009378Y0069147D01*
X0019205Y0069147D02*
X0033424Y0069147D01*
X0033424Y0068549D02*
X0019205Y0068549D01*
X0019205Y0067950D02*
X0033424Y0067950D01*
X0033424Y0067700D02*
X0035825Y0065298D01*
X0039222Y0065298D01*
X0041624Y0067700D01*
X0041624Y0071097D01*
X0039222Y0073498D01*
X0035825Y0073498D01*
X0033424Y0071097D01*
X0033424Y0067700D01*
X0033772Y0067352D02*
X0019205Y0067352D01*
X0019205Y0066753D02*
X0034370Y0066753D01*
X0034969Y0066155D02*
X0019205Y0066155D01*
X0019205Y0065556D02*
X0035567Y0065556D01*
X0039480Y0065556D02*
X0062857Y0065556D01*
X0062259Y0064958D02*
X0019205Y0064958D01*
X0019205Y0064359D02*
X0061660Y0064359D01*
X0061062Y0063761D02*
X0019205Y0063761D01*
X0019205Y0063162D02*
X0060463Y0063162D01*
X0059865Y0062564D02*
X0019251Y0062564D01*
X0019850Y0061965D02*
X0059266Y0061965D01*
X0058668Y0061367D02*
X0020448Y0061367D01*
X0021047Y0060768D02*
X0041600Y0060768D01*
X0043289Y0060768D02*
X0058069Y0060768D01*
X0057471Y0060170D02*
X0044319Y0060170D01*
X0044854Y0059571D02*
X0056872Y0059571D01*
X0056274Y0058973D02*
X0045102Y0058973D01*
X0045234Y0058374D02*
X0055675Y0058374D01*
X0055077Y0057776D02*
X0045234Y0057776D01*
X0045082Y0057177D02*
X0054478Y0057177D01*
X0053880Y0056579D02*
X0044834Y0056579D01*
X0044270Y0055980D02*
X0053281Y0055980D01*
X0052683Y0055382D02*
X0043172Y0055382D01*
X0041718Y0055382D02*
X0019974Y0055382D01*
X0020573Y0055980D02*
X0040620Y0055980D01*
X0040056Y0056579D02*
X0021171Y0056579D01*
X0019376Y0054783D02*
X0052084Y0054783D01*
X0054781Y0052389D02*
X0090745Y0052389D01*
X0090745Y0051791D02*
X0054183Y0051791D01*
X0053584Y0051192D02*
X0090757Y0051192D01*
X0091005Y0050594D02*
X0052986Y0050594D01*
X0052387Y0049995D02*
X0091253Y0049995D01*
X0091686Y0049396D02*
X0051789Y0049396D01*
X0051190Y0048798D02*
X0092285Y0048798D01*
X0093394Y0048199D02*
X0050592Y0048199D01*
X0048796Y0046404D02*
X0075785Y0046404D01*
X0075187Y0045805D02*
X0048198Y0045805D01*
X0047599Y0045207D02*
X0074588Y0045207D01*
X0073990Y0044608D02*
X0047001Y0044608D01*
X0046402Y0044010D02*
X0073506Y0044010D01*
X0073506Y0043411D02*
X0045804Y0043411D01*
X0045205Y0042813D02*
X0073506Y0042813D01*
X0073506Y0041616D02*
X0044008Y0041616D01*
X0044607Y0042214D02*
X0077105Y0042214D01*
X0077106Y0041616D02*
X0077705Y0041616D01*
X0077706Y0042214D02*
X0090745Y0042214D01*
X0090745Y0041616D02*
X0081305Y0041616D01*
X0081305Y0041017D02*
X0090829Y0041017D01*
X0091077Y0040419D02*
X0080831Y0040419D01*
X0080233Y0039820D02*
X0091325Y0039820D01*
X0091345Y0040586D02*
X0106489Y0025443D01*
X0161522Y0025443D01*
X0168146Y0018818D01*
X0172019Y0018818D01*
X0178282Y0025081D01*
X0178282Y0034381D01*
X0178144Y0034519D01*
X0185008Y0040109D01*
X0178123Y0034540D01*
X0178282Y0034381D01*
X0178282Y0025081D01*
X0172019Y0018818D01*
X0168146Y0018818D01*
X0161522Y0025443D01*
X0106489Y0025443D01*
X0091345Y0040586D01*
X0091345Y0043486D01*
X0093395Y0045536D01*
X0144822Y0045536D01*
X0164740Y0025619D01*
X0167091Y0025619D01*
X0170083Y0023493D01*
X0168567Y0021977D01*
X0170083Y0023493D01*
X0169689Y0023099D01*
X0167445Y0023099D01*
X0166454Y0024858D02*
X0166350Y0024858D01*
X0166734Y0025456D02*
X0165751Y0025456D01*
X0165152Y0026055D02*
X0167165Y0026055D01*
X0167459Y0026653D02*
X0164554Y0026653D01*
X0162019Y0026643D02*
X0168643Y0020018D01*
X0171522Y0020018D01*
X0173557Y0022054D01*
X0173557Y0025393D01*
X0174807Y0026643D01*
X0176811Y0023062D02*
X0202445Y0023062D01*
X0202445Y0023661D02*
X0177588Y0023661D01*
X0178186Y0024259D02*
X0202445Y0024259D01*
X0202445Y0024858D02*
X0178478Y0024858D01*
X0178726Y0025456D02*
X0202445Y0025456D01*
X0202445Y0026055D02*
X0178882Y0026055D01*
X0178882Y0026653D02*
X0202445Y0026653D01*
X0202445Y0027252D02*
X0178882Y0027252D01*
X0178717Y0027850D02*
X0202445Y0027850D01*
X0202445Y0028449D02*
X0178470Y0028449D01*
X0178165Y0029047D02*
X0202445Y0029047D01*
X0202445Y0029646D02*
X0177567Y0029646D01*
X0177872Y0030244D02*
X0202445Y0030244D01*
X0202445Y0030843D02*
X0178348Y0030843D01*
X0178596Y0031441D02*
X0202445Y0031441D01*
X0202445Y0032040D02*
X0178844Y0032040D01*
X0178882Y0032638D02*
X0202445Y0032638D01*
X0202445Y0033237D02*
X0178882Y0033237D01*
X0178848Y0033835D02*
X0202445Y0033835D01*
X0202445Y0034434D02*
X0178600Y0034434D01*
X0178352Y0035032D02*
X0202445Y0035032D01*
X0202445Y0035631D02*
X0177881Y0035631D01*
X0177282Y0036229D02*
X0202445Y0036229D01*
X0202445Y0036828D02*
X0176073Y0036828D01*
X0175357Y0037426D02*
X0187843Y0037426D01*
X0188747Y0037052D02*
X0191576Y0037052D01*
X0194189Y0038134D01*
X0196189Y0040135D01*
X0197272Y0042748D01*
X0197272Y0045577D01*
X0196189Y0048190D01*
X0194189Y0050190D01*
X0191576Y0051272D01*
X0188747Y0051272D01*
X0186134Y0050190D01*
X0184134Y0048190D01*
X0183051Y0045577D01*
X0183051Y0042748D01*
X0184134Y0040135D01*
X0186134Y0038134D01*
X0188747Y0037052D01*
X0186399Y0038025D02*
X0175357Y0038025D01*
X0175357Y0038623D02*
X0185645Y0038623D01*
X0185046Y0039222D02*
X0175357Y0039222D01*
X0175357Y0039820D02*
X0184448Y0039820D01*
X0184016Y0040419D02*
X0175357Y0040419D01*
X0175357Y0041017D02*
X0183768Y0041017D01*
X0183520Y0041616D02*
X0175357Y0041616D01*
X0175357Y0042214D02*
X0183272Y0042214D01*
X0183051Y0042813D02*
X0175357Y0042813D01*
X0175357Y0043411D02*
X0183051Y0043411D01*
X0183051Y0044010D02*
X0175357Y0044010D01*
X0175357Y0044608D02*
X0183051Y0044608D01*
X0183051Y0045207D02*
X0175357Y0045207D01*
X0175357Y0045805D02*
X0183146Y0045805D01*
X0183394Y0046404D02*
X0175357Y0046404D01*
X0175357Y0047002D02*
X0183642Y0047002D01*
X0183890Y0047601D02*
X0175357Y0047601D01*
X0175357Y0048199D02*
X0184143Y0048199D01*
X0184742Y0048798D02*
X0175357Y0048798D01*
X0175357Y0049396D02*
X0185340Y0049396D01*
X0185939Y0049995D02*
X0175357Y0049995D01*
X0175357Y0050594D02*
X0187108Y0050594D01*
X0188553Y0051192D02*
X0175357Y0051192D01*
X0175357Y0051791D02*
X0202445Y0051791D01*
X0202445Y0052389D02*
X0175357Y0052389D01*
X0175357Y0052988D02*
X0202445Y0052988D01*
X0202445Y0053586D02*
X0175357Y0053586D01*
X0175357Y0054185D02*
X0202445Y0054185D01*
X0202445Y0054783D02*
X0175357Y0054783D01*
X0175357Y0055382D02*
X0202445Y0055382D01*
X0202445Y0055980D02*
X0175357Y0055980D01*
X0175357Y0056579D02*
X0202445Y0056579D01*
X0202445Y0057177D02*
X0175357Y0057177D01*
X0175357Y0057776D02*
X0202445Y0057776D01*
X0202445Y0058374D02*
X0175357Y0058374D01*
X0175357Y0058973D02*
X0202445Y0058973D01*
X0202445Y0059571D02*
X0175357Y0059571D01*
X0175357Y0060170D02*
X0202445Y0060170D01*
X0202445Y0060768D02*
X0175357Y0060768D01*
X0175357Y0061367D02*
X0202445Y0061367D01*
X0202445Y0061965D02*
X0175357Y0061965D01*
X0175357Y0062564D02*
X0202445Y0062564D01*
X0202445Y0063162D02*
X0175357Y0063162D01*
X0175357Y0063761D02*
X0202445Y0063761D01*
X0202445Y0064359D02*
X0175217Y0064359D01*
X0174619Y0064958D02*
X0202445Y0064958D01*
X0202445Y0065556D02*
X0174020Y0065556D01*
X0173422Y0066155D02*
X0202445Y0066155D01*
X0202445Y0066753D02*
X0172823Y0066753D01*
X0172225Y0067352D02*
X0202445Y0067352D01*
X0202445Y0067950D02*
X0171626Y0067950D01*
X0171028Y0068549D02*
X0197862Y0068549D01*
X0198026Y0068466D02*
X0197324Y0068823D01*
X0196688Y0069285D01*
X0196131Y0069842D01*
X0195668Y0070479D01*
X0195311Y0071180D01*
X0195068Y0071928D01*
X0194945Y0072706D01*
X0194945Y0072799D01*
X0199645Y0072799D01*
X0199645Y0068099D01*
X0199551Y0068099D01*
X0198774Y0068222D01*
X0198026Y0068466D01*
X0196878Y0069147D02*
X0170429Y0069147D01*
X0169831Y0069746D02*
X0196227Y0069746D01*
X0195766Y0070344D02*
X0169232Y0070344D01*
X0168634Y0070943D02*
X0195432Y0070943D01*
X0195194Y0071541D02*
X0168035Y0071541D01*
X0167437Y0072140D02*
X0195034Y0072140D01*
X0194945Y0072738D02*
X0166838Y0072738D01*
X0166239Y0073337D02*
X0199645Y0073337D01*
X0199645Y0072738D02*
X0200245Y0072738D01*
X0200245Y0072140D02*
X0199645Y0072140D01*
X0199645Y0071541D02*
X0200245Y0071541D01*
X0200245Y0070943D02*
X0199645Y0070943D01*
X0199645Y0070344D02*
X0200245Y0070344D01*
X0200245Y0069746D02*
X0199645Y0069746D01*
X0199645Y0069147D02*
X0200245Y0069147D01*
X0200245Y0068549D02*
X0199645Y0068549D01*
X0202028Y0068549D02*
X0202445Y0068549D01*
X0195015Y0073935D02*
X0165641Y0073935D01*
X0165042Y0074534D02*
X0195154Y0074534D01*
X0195369Y0075132D02*
X0164444Y0075132D01*
X0163845Y0075731D02*
X0195677Y0075731D01*
X0196111Y0076330D02*
X0163247Y0076330D01*
X0162648Y0076928D02*
X0196708Y0076928D01*
X0197621Y0077527D02*
X0162050Y0077527D01*
X0161451Y0078125D02*
X0198365Y0078125D01*
X0196967Y0078724D02*
X0160853Y0078724D01*
X0160254Y0079322D02*
X0196368Y0079322D01*
X0195770Y0079921D02*
X0159656Y0079921D01*
X0159057Y0080519D02*
X0195385Y0080519D01*
X0195137Y0081118D02*
X0158459Y0081118D01*
X0157860Y0081716D02*
X0194889Y0081716D01*
X0194745Y0082315D02*
X0157262Y0082315D01*
X0156663Y0082913D02*
X0194745Y0082913D01*
X0194745Y0083512D02*
X0156065Y0083512D01*
X0155466Y0084110D02*
X0194745Y0084110D01*
X0194983Y0084709D02*
X0154868Y0084709D01*
X0154269Y0085307D02*
X0195231Y0085307D01*
X0195479Y0085906D02*
X0153671Y0085906D01*
X0153072Y0086504D02*
X0195996Y0086504D01*
X0196594Y0087103D02*
X0152474Y0087103D01*
X0151875Y0087701D02*
X0197467Y0087701D01*
X0197944Y0088300D02*
X0151277Y0088300D01*
X0150678Y0088898D02*
X0196792Y0088898D01*
X0196193Y0089497D02*
X0150080Y0089497D01*
X0149481Y0090095D02*
X0195595Y0090095D01*
X0195313Y0090694D02*
X0148883Y0090694D01*
X0148284Y0091292D02*
X0195065Y0091292D01*
X0194817Y0091891D02*
X0147686Y0091891D01*
X0147087Y0092489D02*
X0194745Y0092489D01*
X0194745Y0093088D02*
X0146489Y0093088D01*
X0148901Y0093686D02*
X0194745Y0093686D01*
X0194808Y0094285D02*
X0149822Y0094285D01*
X0150421Y0094883D02*
X0195055Y0094883D01*
X0195303Y0095482D02*
X0150777Y0095482D01*
X0151025Y0096080D02*
X0195572Y0096080D01*
X0196171Y0096679D02*
X0151230Y0096679D01*
X0151230Y0097277D02*
X0196769Y0097277D01*
X0197889Y0097876D02*
X0151230Y0097876D01*
X0151119Y0098474D02*
X0197522Y0098474D01*
X0196617Y0099073D02*
X0150871Y0099073D01*
X0150623Y0099671D02*
X0196019Y0099671D01*
X0195488Y0100270D02*
X0150049Y0100270D01*
X0149447Y0100868D02*
X0195240Y0100868D01*
X0194993Y0101467D02*
X0148002Y0101467D01*
X0146257Y0101467D02*
X0138109Y0101467D01*
X0137511Y0102065D02*
X0194745Y0102065D01*
X0194745Y0102664D02*
X0136912Y0102664D01*
X0136314Y0103263D02*
X0194745Y0103263D01*
X0194745Y0103861D02*
X0135715Y0103861D01*
X0135117Y0104460D02*
X0194880Y0104460D01*
X0195128Y0105058D02*
X0134518Y0105058D01*
X0133920Y0105657D02*
X0195376Y0105657D01*
X0195747Y0106255D02*
X0133321Y0106255D01*
X0132723Y0106854D02*
X0196345Y0106854D01*
X0196944Y0107452D02*
X0132124Y0107452D01*
X0131526Y0108051D02*
X0198310Y0108051D01*
X0197100Y0108649D02*
X0132456Y0108649D01*
X0133055Y0109248D02*
X0196443Y0109248D01*
X0195844Y0109846D02*
X0133576Y0109846D01*
X0133823Y0110445D02*
X0195416Y0110445D01*
X0195168Y0111043D02*
X0134071Y0111043D01*
X0134145Y0111642D02*
X0194920Y0111642D01*
X0194745Y0112240D02*
X0134145Y0112240D01*
X0134145Y0112839D02*
X0194745Y0112839D01*
X0194745Y0113437D02*
X0133902Y0113437D01*
X0133654Y0114036D02*
X0194745Y0114036D01*
X0194952Y0114634D02*
X0133245Y0114634D01*
X0132647Y0115233D02*
X0195200Y0115233D01*
X0195448Y0115831D02*
X0131597Y0115831D01*
X0130860Y0117936D02*
X0132367Y0118560D01*
X0133521Y0119714D01*
X0134145Y0121221D01*
X0134145Y0122852D01*
X0133521Y0124359D01*
X0132367Y0125512D01*
X0130860Y0126136D01*
X0124029Y0126136D01*
X0122522Y0125512D01*
X0121369Y0124359D01*
X0120745Y0122852D01*
X0120745Y0121221D01*
X0121369Y0119714D01*
X0122522Y0118560D01*
X0124029Y0117936D01*
X0130860Y0117936D01*
X0131558Y0118225D02*
X0198123Y0118225D01*
X0197287Y0117627D02*
X0015103Y0117627D01*
X0015870Y0117028D02*
X0196520Y0117028D01*
X0195922Y0116430D02*
X0016468Y0116430D01*
X0016942Y0115831D02*
X0093293Y0115831D01*
X0094029Y0116136D02*
X0092522Y0115512D01*
X0091369Y0114359D01*
X0090745Y0112852D01*
X0090745Y0111221D01*
X0091369Y0109714D01*
X0092522Y0108560D01*
X0094029Y0107936D01*
X0100860Y0107936D01*
X0102367Y0108560D01*
X0103521Y0109714D01*
X0104145Y0111221D01*
X0104145Y0112852D01*
X0103521Y0114359D01*
X0102367Y0115512D01*
X0100860Y0116136D01*
X0094029Y0116136D01*
X0094029Y0117936D02*
X0092522Y0118560D01*
X0091369Y0119714D01*
X0090745Y0121221D01*
X0090745Y0122852D01*
X0091369Y0124359D01*
X0092522Y0125512D01*
X0094029Y0126136D01*
X0100860Y0126136D01*
X0102367Y0125512D01*
X0103521Y0124359D01*
X0104145Y0122852D01*
X0104145Y0121221D01*
X0103521Y0119714D01*
X0102367Y0118560D01*
X0100860Y0117936D01*
X0094029Y0117936D01*
X0093331Y0118225D02*
X0014266Y0118225D01*
X0015523Y0118824D02*
X0092259Y0118824D01*
X0091661Y0119422D02*
X0016122Y0119422D01*
X0016720Y0120021D02*
X0091242Y0120021D01*
X0090994Y0120619D02*
X0017046Y0120619D01*
X0017294Y0121218D02*
X0090746Y0121218D01*
X0090745Y0121816D02*
X0017542Y0121816D01*
X0017645Y0122415D02*
X0090745Y0122415D01*
X0090812Y0123013D02*
X0017645Y0123013D01*
X0017645Y0123612D02*
X0091060Y0123612D01*
X0091308Y0124210D02*
X0017613Y0124210D01*
X0017365Y0124809D02*
X0091819Y0124809D01*
X0092418Y0125407D02*
X0017117Y0125407D01*
X0016869Y0126006D02*
X0093715Y0126006D01*
X0094029Y0127936D02*
X0092522Y0128560D01*
X0091369Y0129714D01*
X0090745Y0131221D01*
X0090745Y0132852D01*
X0091369Y0134359D01*
X0092522Y0135512D01*
X0094029Y0136136D01*
X0100860Y0136136D01*
X0102367Y0135512D01*
X0103521Y0134359D01*
X0104145Y0132852D01*
X0104145Y0131221D01*
X0103521Y0129714D01*
X0102367Y0128560D01*
X0100860Y0127936D01*
X0094029Y0127936D01*
X0092910Y0128400D02*
X0014688Y0128400D01*
X0014681Y0127801D02*
X0197709Y0127801D01*
X0197702Y0128400D02*
X0131980Y0128400D01*
X0132367Y0128560D02*
X0133521Y0129714D01*
X0134145Y0131221D01*
X0134145Y0132852D01*
X0133521Y0134359D01*
X0132367Y0135512D01*
X0130860Y0136136D01*
X0124029Y0136136D01*
X0122522Y0135512D01*
X0121369Y0134359D01*
X0120745Y0132852D01*
X0120745Y0131221D01*
X0121369Y0129714D01*
X0122522Y0128560D01*
X0124029Y0127936D01*
X0130860Y0127936D01*
X0132367Y0128560D01*
X0132805Y0128998D02*
X0196692Y0128998D01*
X0196093Y0129597D02*
X0133404Y0129597D01*
X0133720Y0130196D02*
X0195519Y0130196D01*
X0195271Y0130794D02*
X0133968Y0130794D01*
X0134145Y0131393D02*
X0195023Y0131393D01*
X0194775Y0131991D02*
X0134145Y0131991D01*
X0134145Y0132590D02*
X0194745Y0132590D01*
X0194745Y0133188D02*
X0134006Y0133188D01*
X0133758Y0133787D02*
X0194745Y0133787D01*
X0194849Y0134385D02*
X0133494Y0134385D01*
X0132896Y0134984D02*
X0195097Y0134984D01*
X0195345Y0135582D02*
X0132198Y0135582D01*
X0130957Y0137976D02*
X0198131Y0137976D01*
X0197280Y0138575D02*
X0132382Y0138575D01*
X0132367Y0138560D02*
X0133521Y0139714D01*
X0134145Y0141221D01*
X0134145Y0142852D01*
X0133521Y0144359D01*
X0132367Y0145512D01*
X0130860Y0146136D01*
X0124029Y0146136D01*
X0122522Y0145512D01*
X0121369Y0144359D01*
X0120745Y0142852D01*
X0120745Y0141221D01*
X0121369Y0139714D01*
X0122522Y0138560D01*
X0124029Y0137936D01*
X0130860Y0137936D01*
X0132367Y0138560D01*
X0132980Y0139173D02*
X0196517Y0139173D01*
X0195918Y0139772D02*
X0133545Y0139772D01*
X0133793Y0140370D02*
X0195447Y0140370D01*
X0195199Y0140969D02*
X0134041Y0140969D01*
X0134145Y0141567D02*
X0194951Y0141567D01*
X0194745Y0142166D02*
X0134145Y0142166D01*
X0134145Y0142764D02*
X0194745Y0142764D01*
X0194745Y0143363D02*
X0133933Y0143363D01*
X0133685Y0143961D02*
X0194745Y0143961D01*
X0194921Y0144560D02*
X0133320Y0144560D01*
X0132721Y0145158D02*
X0195169Y0145158D01*
X0195417Y0145757D02*
X0131776Y0145757D01*
X0130860Y0147936D02*
X0132367Y0148560D01*
X0133521Y0149714D01*
X0134145Y0151221D01*
X0134145Y0152852D01*
X0133521Y0154359D01*
X0132367Y0155512D01*
X0130860Y0156136D01*
X0124029Y0156136D01*
X0122522Y0155512D01*
X0121369Y0154359D01*
X0120745Y0152852D01*
X0120745Y0151221D01*
X0121369Y0149714D01*
X0122522Y0148560D01*
X0124029Y0147936D01*
X0130860Y0147936D01*
X0131379Y0148151D02*
X0198552Y0148151D01*
X0197107Y0147552D02*
X0090234Y0147552D01*
X0090234Y0148151D02*
X0093511Y0148151D01*
X0094029Y0147936D02*
X0100860Y0147936D01*
X0102367Y0148560D01*
X0103521Y0149714D01*
X0104145Y0151221D01*
X0104145Y0152852D01*
X0103521Y0154359D01*
X0102367Y0155512D01*
X0100860Y0156136D01*
X0094029Y0156136D01*
X0092522Y0155512D01*
X0091369Y0154359D01*
X0090745Y0152852D01*
X0090745Y0151221D01*
X0091369Y0149714D01*
X0092522Y0148560D01*
X0094029Y0147936D01*
X0094029Y0146136D02*
X0092522Y0145512D01*
X0091369Y0144359D01*
X0090745Y0142852D01*
X0090745Y0141221D01*
X0091369Y0139714D01*
X0092522Y0138560D01*
X0094029Y0137936D01*
X0100860Y0137936D01*
X0102367Y0138560D01*
X0103521Y0139714D01*
X0104145Y0141221D01*
X0104145Y0142852D01*
X0103521Y0144359D01*
X0102367Y0145512D01*
X0100860Y0146136D01*
X0094029Y0146136D01*
X0093113Y0145757D02*
X0089047Y0145757D01*
X0089330Y0145158D02*
X0092169Y0145158D01*
X0091570Y0144560D02*
X0089859Y0144560D01*
X0090107Y0143961D02*
X0091204Y0143961D01*
X0090957Y0143363D02*
X0090234Y0143363D01*
X0090234Y0142764D02*
X0090745Y0142764D01*
X0090745Y0142166D02*
X0090077Y0142166D01*
X0089829Y0141567D02*
X0090745Y0141567D01*
X0090849Y0140969D02*
X0089259Y0140969D01*
X0088144Y0140370D02*
X0091097Y0140370D01*
X0091345Y0139772D02*
X0016471Y0139772D01*
X0016943Y0140370D02*
X0086745Y0140370D01*
X0085631Y0140969D02*
X0017191Y0140969D01*
X0017439Y0141567D02*
X0085061Y0141567D01*
X0087445Y0143099D02*
X0021858Y0153686D01*
X0012500Y0153686D01*
X0017323Y0151742D02*
X0022605Y0151742D01*
X0026313Y0151143D02*
X0017075Y0151143D01*
X0016713Y0150545D02*
X0030021Y0150545D01*
X0033729Y0149946D02*
X0016114Y0149946D01*
X0015516Y0149348D02*
X0037437Y0149348D01*
X0041145Y0148749D02*
X0014171Y0148749D01*
X0013837Y0148151D02*
X0044853Y0148151D01*
X0048561Y0147552D02*
X0015282Y0147552D01*
X0015944Y0146954D02*
X0052269Y0146954D01*
X0055977Y0146355D02*
X0016543Y0146355D01*
X0016973Y0145757D02*
X0059685Y0145757D01*
X0063393Y0145158D02*
X0017220Y0145158D01*
X0017468Y0144560D02*
X0067101Y0144560D01*
X0070808Y0143961D02*
X0017645Y0143961D01*
X0017645Y0143363D02*
X0074516Y0143363D01*
X0078224Y0142764D02*
X0017645Y0142764D01*
X0017645Y0142166D02*
X0081932Y0142166D01*
X0087445Y0148099D02*
X0021858Y0163686D01*
X0012500Y0163686D01*
X0014465Y0168500D02*
X0092668Y0168500D01*
X0091984Y0169099D02*
X0014511Y0169099D01*
X0015517Y0169697D02*
X0091386Y0169697D01*
X0091128Y0170296D02*
X0016181Y0170296D01*
X0016652Y0170894D02*
X0090880Y0170894D01*
X0090745Y0171493D02*
X0016994Y0171493D01*
X0017239Y0172091D02*
X0090745Y0172091D01*
X0090745Y0172690D02*
X0017405Y0172690D01*
X0017499Y0173288D02*
X0090926Y0173288D01*
X0095156Y0181007D02*
X0098553Y0181007D01*
X0100954Y0183409D01*
X0100954Y0186805D01*
X0098553Y0189207D01*
X0095156Y0189207D01*
X0092754Y0186805D01*
X0092754Y0183409D01*
X0095156Y0181007D01*
X0095094Y0181069D02*
X0017662Y0181069D01*
X0017292Y0181667D02*
X0094496Y0181667D01*
X0093897Y0182266D02*
X0017540Y0182266D01*
X0017700Y0182865D02*
X0093299Y0182865D01*
X0092754Y0183463D02*
X0017700Y0183463D01*
X0017700Y0184062D02*
X0092754Y0184062D01*
X0092754Y0184660D02*
X0017700Y0184660D01*
X0017477Y0185259D02*
X0092754Y0185259D01*
X0092754Y0185857D02*
X0017229Y0185857D01*
X0016981Y0186456D02*
X0092754Y0186456D01*
X0093003Y0187054D02*
X0016486Y0187054D01*
X0015887Y0187653D02*
X0093602Y0187653D01*
X0094200Y0188251D02*
X0015067Y0188251D01*
X0014413Y0188850D02*
X0094799Y0188850D01*
X0098910Y0188850D02*
X0134799Y0188850D01*
X0135156Y0189207D02*
X0132754Y0186805D01*
X0132754Y0183409D01*
X0135156Y0181007D01*
X0138553Y0181007D01*
X0140954Y0183409D01*
X0140954Y0186805D01*
X0138553Y0189207D01*
X0135156Y0189207D01*
X0134200Y0188251D02*
X0099509Y0188251D01*
X0100107Y0187653D02*
X0133602Y0187653D01*
X0133003Y0187054D02*
X0100706Y0187054D01*
X0100954Y0186456D02*
X0132754Y0186456D01*
X0132754Y0185857D02*
X0100954Y0185857D01*
X0100954Y0185259D02*
X0132754Y0185259D01*
X0132754Y0184660D02*
X0100954Y0184660D01*
X0100954Y0184062D02*
X0132754Y0184062D01*
X0132754Y0183463D02*
X0100954Y0183463D01*
X0100410Y0182865D02*
X0133299Y0182865D01*
X0133897Y0182266D02*
X0099812Y0182266D01*
X0099213Y0181667D02*
X0134496Y0181667D01*
X0135094Y0181069D02*
X0098614Y0181069D01*
X0102697Y0176879D02*
X0202445Y0176879D01*
X0202445Y0176281D02*
X0103296Y0176281D01*
X0103894Y0175682D02*
X0122934Y0175682D01*
X0122094Y0175084D02*
X0104493Y0175084D01*
X0105091Y0174485D02*
X0121496Y0174485D01*
X0121174Y0173887D02*
X0105690Y0173887D01*
X0104995Y0172036D02*
X0101495Y0175536D01*
X0020650Y0175536D01*
X0012500Y0183686D01*
X0015616Y0189448D02*
X0140788Y0189448D01*
X0140788Y0188955D02*
X0141580Y0187043D01*
X0143043Y0185581D01*
X0144954Y0184789D01*
X0147023Y0184789D01*
X0148934Y0185581D01*
X0150397Y0187043D01*
X0151188Y0188955D01*
X0151188Y0191023D01*
X0150397Y0192935D01*
X0148934Y0194397D01*
X0147023Y0195189D01*
X0144954Y0195189D01*
X0143043Y0194397D01*
X0141580Y0192935D01*
X0140788Y0191023D01*
X0140788Y0188955D01*
X0140832Y0188850D02*
X0138910Y0188850D01*
X0139509Y0188251D02*
X0141080Y0188251D01*
X0141327Y0187653D02*
X0140107Y0187653D01*
X0140706Y0187054D02*
X0141575Y0187054D01*
X0142168Y0186456D02*
X0140954Y0186456D01*
X0140954Y0185857D02*
X0142766Y0185857D01*
X0143820Y0185259D02*
X0140954Y0185259D01*
X0140954Y0184660D02*
X0179683Y0184660D01*
X0179683Y0184062D02*
X0140954Y0184062D01*
X0140954Y0183463D02*
X0179683Y0183463D01*
X0179683Y0183173D02*
X0182085Y0180771D01*
X0185482Y0180771D01*
X0187883Y0183173D01*
X0187883Y0186569D01*
X0185482Y0188971D01*
X0182085Y0188971D01*
X0179683Y0186569D01*
X0179683Y0183173D01*
X0179992Y0182865D02*
X0140410Y0182865D01*
X0139812Y0182266D02*
X0180590Y0182266D01*
X0181189Y0181667D02*
X0139213Y0181667D01*
X0138614Y0181069D02*
X0181787Y0181069D01*
X0185780Y0181069D02*
X0202445Y0181069D01*
X0202445Y0181667D02*
X0186378Y0181667D01*
X0186977Y0182266D02*
X0202445Y0182266D01*
X0202445Y0182865D02*
X0187575Y0182865D01*
X0187883Y0183463D02*
X0202445Y0183463D01*
X0202445Y0184062D02*
X0187883Y0184062D01*
X0187883Y0184660D02*
X0202445Y0184660D01*
X0202445Y0185259D02*
X0187883Y0185259D01*
X0187883Y0185857D02*
X0202445Y0185857D01*
X0202445Y0186456D02*
X0187883Y0186456D01*
X0187398Y0187054D02*
X0202445Y0187054D01*
X0202445Y0187653D02*
X0186800Y0187653D01*
X0186201Y0188251D02*
X0202445Y0188251D01*
X0202445Y0188850D02*
X0185603Y0188850D01*
X0185482Y0190771D02*
X0187883Y0193173D01*
X0187883Y0196569D01*
X0185482Y0198971D01*
X0182085Y0198971D01*
X0179683Y0196569D01*
X0179683Y0193173D01*
X0182085Y0190771D01*
X0185482Y0190771D01*
X0185955Y0191244D02*
X0202445Y0191244D01*
X0202445Y0191842D02*
X0186553Y0191842D01*
X0187152Y0192441D02*
X0202445Y0192441D01*
X0202445Y0193039D02*
X0187750Y0193039D01*
X0187883Y0193638D02*
X0202445Y0193638D01*
X0202445Y0194236D02*
X0187883Y0194236D01*
X0187883Y0194835D02*
X0202445Y0194835D01*
X0202445Y0195433D02*
X0187883Y0195433D01*
X0187883Y0196032D02*
X0202445Y0196032D01*
X0202445Y0196630D02*
X0187822Y0196630D01*
X0187224Y0197229D02*
X0202445Y0197229D01*
X0202445Y0197827D02*
X0186625Y0197827D01*
X0186027Y0198426D02*
X0202445Y0198426D01*
X0202445Y0199024D02*
X0143828Y0199024D01*
X0143828Y0199443D02*
X0141427Y0201845D01*
X0138030Y0201845D01*
X0135628Y0199443D01*
X0135628Y0196047D01*
X0138030Y0193645D01*
X0141427Y0193645D01*
X0143828Y0196047D01*
X0143828Y0199443D01*
X0143649Y0199623D02*
X0202445Y0199623D01*
X0202445Y0200221D02*
X0143050Y0200221D01*
X0142452Y0200820D02*
X0202445Y0200820D01*
X0202445Y0201418D02*
X0141853Y0201418D01*
X0143828Y0198426D02*
X0181540Y0198426D01*
X0180942Y0197827D02*
X0143828Y0197827D01*
X0143828Y0197229D02*
X0180343Y0197229D01*
X0179745Y0196630D02*
X0143828Y0196630D01*
X0143813Y0196032D02*
X0179683Y0196032D01*
X0179683Y0195433D02*
X0143215Y0195433D01*
X0142616Y0194835D02*
X0144099Y0194835D01*
X0142882Y0194236D02*
X0142018Y0194236D01*
X0142283Y0193638D02*
X0017700Y0193638D01*
X0017700Y0194236D02*
X0097722Y0194236D01*
X0098113Y0193845D02*
X0099428Y0193845D01*
X0099428Y0197445D01*
X0095828Y0197445D01*
X0095828Y0196129D01*
X0098113Y0193845D01*
X0099428Y0194236D02*
X0100028Y0194236D01*
X0100028Y0193845D02*
X0101344Y0193845D01*
X0103628Y0196129D01*
X0103628Y0197445D01*
X0100028Y0197445D01*
X0100028Y0193845D01*
X0100028Y0194835D02*
X0099428Y0194835D01*
X0099428Y0195433D02*
X0100028Y0195433D01*
X0100028Y0196032D02*
X0099428Y0196032D01*
X0099428Y0196630D02*
X0100028Y0196630D01*
X0100028Y0197229D02*
X0099428Y0197229D01*
X0099428Y0197445D02*
X0100028Y0197445D01*
X0100028Y0198045D01*
X0099428Y0198045D01*
X0099428Y0197445D01*
X0099428Y0197827D02*
X0015712Y0197827D01*
X0016311Y0197229D02*
X0095828Y0197229D01*
X0095828Y0196630D02*
X0016909Y0196630D01*
X0017157Y0196032D02*
X0095926Y0196032D01*
X0096525Y0195433D02*
X0017405Y0195433D01*
X0017653Y0194835D02*
X0097123Y0194835D01*
X0095828Y0198045D02*
X0099428Y0198045D01*
X0099428Y0201645D01*
X0098113Y0201645D01*
X0095828Y0199360D01*
X0095828Y0198045D01*
X0095828Y0198426D02*
X0014645Y0198426D01*
X0010355Y0198426D02*
X0008945Y0198426D01*
X0008945Y0199024D02*
X0095828Y0199024D01*
X0096091Y0199623D02*
X0008945Y0199623D01*
X0008945Y0200221D02*
X0096689Y0200221D01*
X0097288Y0200820D02*
X0008945Y0200820D01*
X0008945Y0201418D02*
X0097886Y0201418D01*
X0099428Y0201418D02*
X0100028Y0201418D01*
X0100028Y0201645D02*
X0101344Y0201645D01*
X0103628Y0199360D01*
X0103628Y0198045D01*
X0100028Y0198045D01*
X0100028Y0201645D01*
X0100028Y0200820D02*
X0099428Y0200820D01*
X0099428Y0200221D02*
X0100028Y0200221D01*
X0100028Y0199623D02*
X0099428Y0199623D01*
X0099428Y0199024D02*
X0100028Y0199024D01*
X0100028Y0198426D02*
X0099428Y0198426D01*
X0100028Y0197827D02*
X0135628Y0197827D01*
X0135628Y0197229D02*
X0103628Y0197229D01*
X0103628Y0196630D02*
X0135628Y0196630D01*
X0135643Y0196032D02*
X0103531Y0196032D01*
X0102932Y0195433D02*
X0136242Y0195433D01*
X0136840Y0194835D02*
X0102334Y0194835D01*
X0101735Y0194236D02*
X0137439Y0194236D01*
X0141375Y0192441D02*
X0017613Y0192441D01*
X0017700Y0193039D02*
X0141685Y0193039D01*
X0141127Y0191842D02*
X0017365Y0191842D01*
X0017117Y0191244D02*
X0140879Y0191244D01*
X0140788Y0190645D02*
X0016813Y0190645D01*
X0016215Y0190047D02*
X0140788Y0190047D01*
X0147878Y0194835D02*
X0164722Y0194835D01*
X0164817Y0194866D02*
X0164069Y0194623D01*
X0163368Y0194265D01*
X0162731Y0193803D01*
X0162174Y0193246D01*
X0161712Y0192610D01*
X0161355Y0191908D01*
X0161111Y0191160D01*
X0160988Y0190382D01*
X0160988Y0190289D01*
X0165688Y0190289D01*
X0165688Y0189689D01*
X0160988Y0189689D01*
X0160988Y0189595D01*
X0161111Y0188818D01*
X0161355Y0188070D01*
X0161712Y0187368D01*
X0162174Y0186732D01*
X0162731Y0186175D01*
X0163368Y0185713D01*
X0164069Y0185355D01*
X0164817Y0185112D01*
X0165595Y0184989D01*
X0165688Y0184989D01*
X0165688Y0189689D01*
X0166288Y0189689D01*
X0166288Y0184989D01*
X0166382Y0184989D01*
X0167159Y0185112D01*
X0167908Y0185355D01*
X0168609Y0185713D01*
X0169245Y0186175D01*
X0169802Y0186732D01*
X0170265Y0187368D01*
X0170622Y0188070D01*
X0170865Y0188818D01*
X0170988Y0189595D01*
X0170988Y0189689D01*
X0166288Y0189689D01*
X0166288Y0190289D01*
X0165688Y0190289D01*
X0165688Y0194989D01*
X0165595Y0194989D01*
X0164817Y0194866D01*
X0165688Y0194835D02*
X0166288Y0194835D01*
X0166288Y0194989D02*
X0166288Y0190289D01*
X0170988Y0190289D01*
X0170988Y0190382D01*
X0170865Y0191160D01*
X0170622Y0191908D01*
X0170265Y0192610D01*
X0169802Y0193246D01*
X0169245Y0193803D01*
X0168609Y0194265D01*
X0167908Y0194623D01*
X0167159Y0194866D01*
X0166382Y0194989D01*
X0166288Y0194989D01*
X0166288Y0194236D02*
X0165688Y0194236D01*
X0165688Y0193638D02*
X0166288Y0193638D01*
X0166288Y0193039D02*
X0165688Y0193039D01*
X0165688Y0192441D02*
X0166288Y0192441D01*
X0166288Y0191842D02*
X0165688Y0191842D01*
X0165688Y0191244D02*
X0166288Y0191244D01*
X0166288Y0190645D02*
X0165688Y0190645D01*
X0165688Y0190047D02*
X0151188Y0190047D01*
X0151188Y0190645D02*
X0161030Y0190645D01*
X0161139Y0191244D02*
X0151097Y0191244D01*
X0150849Y0191842D02*
X0161333Y0191842D01*
X0161626Y0192441D02*
X0150601Y0192441D01*
X0150292Y0193039D02*
X0162024Y0193039D01*
X0162566Y0193638D02*
X0149693Y0193638D01*
X0149095Y0194236D02*
X0163328Y0194236D01*
X0167255Y0194835D02*
X0179683Y0194835D01*
X0179683Y0194236D02*
X0168649Y0194236D01*
X0169410Y0193638D02*
X0179683Y0193638D01*
X0179817Y0193039D02*
X0169952Y0193039D01*
X0170351Y0192441D02*
X0180415Y0192441D01*
X0181014Y0191842D02*
X0170643Y0191842D01*
X0170838Y0191244D02*
X0181612Y0191244D01*
X0181964Y0188850D02*
X0170870Y0188850D01*
X0170965Y0189448D02*
X0202445Y0189448D01*
X0202445Y0190047D02*
X0166288Y0190047D01*
X0166288Y0189448D02*
X0165688Y0189448D01*
X0165688Y0188850D02*
X0166288Y0188850D01*
X0166288Y0188251D02*
X0165688Y0188251D01*
X0165688Y0187653D02*
X0166288Y0187653D01*
X0166288Y0187054D02*
X0165688Y0187054D01*
X0165688Y0186456D02*
X0166288Y0186456D01*
X0166288Y0185857D02*
X0165688Y0185857D01*
X0165688Y0185259D02*
X0166288Y0185259D01*
X0167610Y0185259D02*
X0179683Y0185259D01*
X0179683Y0185857D02*
X0168808Y0185857D01*
X0169526Y0186456D02*
X0179683Y0186456D01*
X0180168Y0187054D02*
X0170036Y0187054D01*
X0170409Y0187653D02*
X0180767Y0187653D01*
X0181365Y0188251D02*
X0170681Y0188251D01*
X0170947Y0190645D02*
X0202445Y0190645D01*
X0202445Y0180470D02*
X0018261Y0180470D01*
X0018859Y0179872D02*
X0202445Y0179872D01*
X0202445Y0179273D02*
X0019458Y0179273D01*
X0020056Y0178675D02*
X0202445Y0178675D01*
X0202445Y0178076D02*
X0020655Y0178076D01*
X0021253Y0177478D02*
X0202445Y0177478D01*
X0202445Y0175682D02*
X0131956Y0175682D01*
X0132795Y0175084D02*
X0202445Y0175084D01*
X0202445Y0174485D02*
X0133394Y0174485D01*
X0133716Y0173887D02*
X0202445Y0173887D01*
X0202445Y0173288D02*
X0133964Y0173288D01*
X0134145Y0172690D02*
X0202445Y0172690D01*
X0202445Y0172091D02*
X0134145Y0172091D01*
X0134145Y0171493D02*
X0202445Y0171493D01*
X0202445Y0170894D02*
X0134010Y0170894D01*
X0133762Y0170296D02*
X0202445Y0170296D01*
X0202445Y0169697D02*
X0133504Y0169697D01*
X0132906Y0169099D02*
X0202445Y0169099D01*
X0202445Y0168500D02*
X0132222Y0168500D01*
X0131182Y0165786D02*
X0130429Y0165936D01*
X0127745Y0165936D01*
X0127745Y0162336D01*
X0133945Y0162336D01*
X0133945Y0162420D01*
X0133795Y0163174D01*
X0133501Y0163884D01*
X0133074Y0164522D01*
X0132531Y0165066D01*
X0131892Y0165492D01*
X0131182Y0165786D01*
X0131855Y0165508D02*
X0202445Y0165508D01*
X0202445Y0166106D02*
X0100933Y0166106D01*
X0100860Y0166136D02*
X0102367Y0165512D01*
X0103521Y0164359D01*
X0104145Y0162852D01*
X0104145Y0161221D01*
X0103521Y0159714D01*
X0102367Y0158560D01*
X0100860Y0157936D01*
X0094029Y0157936D01*
X0092522Y0158560D01*
X0091369Y0159714D01*
X0090745Y0161221D01*
X0090745Y0162852D01*
X0091369Y0164359D01*
X0092522Y0165512D01*
X0094029Y0166136D01*
X0100860Y0166136D01*
X0102372Y0165508D02*
X0123035Y0165508D01*
X0122998Y0165492D02*
X0122359Y0165066D01*
X0121816Y0164522D01*
X0121389Y0163884D01*
X0121095Y0163174D01*
X0120945Y0162420D01*
X0120945Y0162336D01*
X0127145Y0162336D01*
X0127145Y0161736D01*
X0127745Y0161736D01*
X0127745Y0158136D01*
X0130429Y0158136D01*
X0131182Y0158286D01*
X0131892Y0158580D01*
X0132531Y0159007D01*
X0133074Y0159550D01*
X0133501Y0160189D01*
X0133795Y0160899D01*
X0133945Y0161652D01*
X0133945Y0161736D01*
X0127745Y0161736D01*
X0127745Y0162336D01*
X0127145Y0162336D01*
X0127145Y0165936D01*
X0124461Y0165936D01*
X0123707Y0165786D01*
X0122998Y0165492D01*
X0122202Y0164909D02*
X0102970Y0164909D01*
X0103541Y0164311D02*
X0121674Y0164311D01*
X0121318Y0163712D02*
X0103788Y0163712D01*
X0104036Y0163114D02*
X0121083Y0163114D01*
X0120964Y0162515D02*
X0104145Y0162515D01*
X0104145Y0161917D02*
X0127145Y0161917D01*
X0127145Y0161736D02*
X0120945Y0161736D01*
X0120945Y0161652D01*
X0121095Y0160899D01*
X0121389Y0160189D01*
X0121816Y0159550D01*
X0122359Y0159007D01*
X0122998Y0158580D01*
X0123707Y0158286D01*
X0124461Y0158136D01*
X0127145Y0158136D01*
X0127145Y0161736D01*
X0127145Y0161318D02*
X0127745Y0161318D01*
X0127745Y0160720D02*
X0127145Y0160720D01*
X0127145Y0160121D02*
X0127745Y0160121D01*
X0127745Y0159523D02*
X0127145Y0159523D01*
X0127145Y0158924D02*
X0127745Y0158924D01*
X0127745Y0158326D02*
X0127145Y0158326D01*
X0123612Y0158326D02*
X0101800Y0158326D01*
X0102731Y0158924D02*
X0122483Y0158924D01*
X0121843Y0159523D02*
X0103330Y0159523D01*
X0103689Y0160121D02*
X0121434Y0160121D01*
X0121169Y0160720D02*
X0103937Y0160720D01*
X0104145Y0161318D02*
X0121011Y0161318D01*
X0123535Y0155932D02*
X0101355Y0155932D01*
X0102546Y0155333D02*
X0122343Y0155333D01*
X0121745Y0154734D02*
X0103145Y0154734D01*
X0103613Y0154136D02*
X0121277Y0154136D01*
X0121029Y0153537D02*
X0103861Y0153537D01*
X0104109Y0152939D02*
X0120781Y0152939D01*
X0120745Y0152340D02*
X0104145Y0152340D01*
X0104145Y0151742D02*
X0120745Y0151742D01*
X0120777Y0151143D02*
X0104113Y0151143D01*
X0103865Y0150545D02*
X0121025Y0150545D01*
X0121273Y0149946D02*
X0103617Y0149946D01*
X0103155Y0149348D02*
X0121735Y0149348D01*
X0122333Y0148749D02*
X0102556Y0148749D01*
X0101379Y0148151D02*
X0123511Y0148151D01*
X0123113Y0145757D02*
X0101776Y0145757D01*
X0102721Y0145158D02*
X0122169Y0145158D01*
X0121570Y0144560D02*
X0103320Y0144560D01*
X0103685Y0143961D02*
X0121204Y0143961D01*
X0120957Y0143363D02*
X0103933Y0143363D01*
X0104145Y0142764D02*
X0120745Y0142764D01*
X0120745Y0142166D02*
X0104145Y0142166D01*
X0104145Y0141567D02*
X0120745Y0141567D01*
X0120849Y0140969D02*
X0104041Y0140969D01*
X0103793Y0140370D02*
X0121097Y0140370D01*
X0121345Y0139772D02*
X0103545Y0139772D01*
X0102980Y0139173D02*
X0121910Y0139173D01*
X0122508Y0138575D02*
X0102382Y0138575D01*
X0100957Y0137976D02*
X0123933Y0137976D01*
X0122692Y0135582D02*
X0102198Y0135582D01*
X0102896Y0134984D02*
X0121994Y0134984D01*
X0121395Y0134385D02*
X0103494Y0134385D01*
X0103758Y0133787D02*
X0121132Y0133787D01*
X0120884Y0133188D02*
X0104006Y0133188D01*
X0104145Y0132590D02*
X0120745Y0132590D01*
X0120745Y0131991D02*
X0104145Y0131991D01*
X0104145Y0131393D02*
X0120745Y0131393D01*
X0120922Y0130794D02*
X0103968Y0130794D01*
X0103720Y0130196D02*
X0121170Y0130196D01*
X0121486Y0129597D02*
X0103404Y0129597D01*
X0102805Y0128998D02*
X0122084Y0128998D01*
X0122910Y0128400D02*
X0101980Y0128400D01*
X0101175Y0126006D02*
X0123715Y0126006D01*
X0122418Y0125407D02*
X0102472Y0125407D01*
X0103070Y0124809D02*
X0121819Y0124809D01*
X0121308Y0124210D02*
X0103582Y0124210D01*
X0103830Y0123612D02*
X0121060Y0123612D01*
X0120812Y0123013D02*
X0104078Y0123013D01*
X0104145Y0122415D02*
X0120745Y0122415D01*
X0120745Y0121816D02*
X0104145Y0121816D01*
X0104144Y0121218D02*
X0120746Y0121218D01*
X0120994Y0120619D02*
X0103896Y0120619D01*
X0103648Y0120021D02*
X0121242Y0120021D01*
X0121661Y0119422D02*
X0103229Y0119422D01*
X0102631Y0118824D02*
X0122259Y0118824D01*
X0123331Y0118225D02*
X0101558Y0118225D01*
X0101597Y0115831D02*
X0123293Y0115831D01*
X0122243Y0115233D02*
X0102647Y0115233D01*
X0103245Y0114634D02*
X0121645Y0114634D01*
X0121235Y0114036D02*
X0103654Y0114036D01*
X0103902Y0113437D02*
X0120987Y0113437D01*
X0120745Y0112839D02*
X0104145Y0112839D01*
X0104145Y0112240D02*
X0120745Y0112240D01*
X0120745Y0111642D02*
X0104145Y0111642D01*
X0104071Y0111043D02*
X0120818Y0111043D01*
X0121066Y0110445D02*
X0103823Y0110445D01*
X0103576Y0109846D02*
X0121314Y0109846D01*
X0121835Y0109248D02*
X0103055Y0109248D01*
X0102456Y0108649D02*
X0122434Y0108649D01*
X0123753Y0108051D02*
X0101137Y0108051D01*
X0100429Y0105936D02*
X0097745Y0105936D01*
X0097745Y0102336D01*
X0103945Y0102336D01*
X0103945Y0102420D01*
X0103795Y0103174D01*
X0103501Y0103884D01*
X0103074Y0104522D01*
X0102531Y0105066D01*
X0101892Y0105492D01*
X0101182Y0105786D01*
X0100429Y0105936D01*
X0101496Y0105657D02*
X0122871Y0105657D01*
X0122068Y0105058D02*
X0102538Y0105058D01*
X0103116Y0104460D02*
X0121470Y0104460D01*
X0121163Y0103861D02*
X0103510Y0103861D01*
X0103758Y0103263D02*
X0120915Y0103263D01*
X0120745Y0102664D02*
X0103896Y0102664D01*
X0103945Y0101736D02*
X0097745Y0101736D01*
X0097745Y0098136D01*
X0100429Y0098136D01*
X0101182Y0098286D01*
X0101892Y0098580D01*
X0102531Y0099007D01*
X0103074Y0099550D01*
X0103501Y0100189D01*
X0103795Y0100899D01*
X0103945Y0101652D01*
X0103945Y0101736D01*
X0103908Y0101467D02*
X0120745Y0101467D01*
X0120745Y0102065D02*
X0097745Y0102065D01*
X0097745Y0102336D02*
X0097745Y0101736D01*
X0097145Y0101736D01*
X0097145Y0098136D01*
X0094461Y0098136D01*
X0093707Y0098286D01*
X0092998Y0098580D01*
X0092359Y0099007D01*
X0091816Y0099550D01*
X0091389Y0100189D01*
X0091095Y0100899D01*
X0090945Y0101652D01*
X0090945Y0101736D01*
X0097145Y0101736D01*
X0097145Y0102336D01*
X0090945Y0102336D01*
X0090945Y0102420D01*
X0091095Y0103174D01*
X0091389Y0103884D01*
X0091816Y0104522D01*
X0092359Y0105066D01*
X0092998Y0105492D01*
X0093707Y0105786D01*
X0094461Y0105936D01*
X0097145Y0105936D01*
X0097145Y0102336D01*
X0097745Y0102336D01*
X0097745Y0102664D02*
X0097145Y0102664D01*
X0097145Y0102065D02*
X0085283Y0102065D01*
X0085283Y0101467D02*
X0090982Y0101467D01*
X0091107Y0100868D02*
X0085195Y0100868D01*
X0084947Y0100270D02*
X0091355Y0100270D01*
X0091734Y0099671D02*
X0084699Y0099671D01*
X0084395Y0099073D02*
X0092293Y0099073D01*
X0093253Y0098474D02*
X0083796Y0098474D01*
X0083198Y0097876D02*
X0129060Y0097876D01*
X0129658Y0097277D02*
X0081992Y0097277D01*
X0082139Y0096679D02*
X0130257Y0096679D01*
X0134145Y0092489D02*
X0134446Y0092489D01*
X0134145Y0091891D02*
X0135045Y0091891D01*
X0135643Y0091292D02*
X0134145Y0091292D01*
X0133927Y0090694D02*
X0136242Y0090694D01*
X0136840Y0090095D02*
X0133679Y0090095D01*
X0133304Y0089497D02*
X0137439Y0089497D01*
X0138037Y0088898D02*
X0132705Y0088898D01*
X0131738Y0088300D02*
X0138636Y0088300D01*
X0139234Y0087701D02*
X0082434Y0087701D01*
X0081629Y0087103D02*
X0139833Y0087103D01*
X0140431Y0086504D02*
X0083047Y0086504D01*
X0083646Y0085906D02*
X0093473Y0085906D01*
X0092318Y0085307D02*
X0084244Y0085307D01*
X0084637Y0084709D02*
X0091719Y0084709D01*
X0091266Y0084110D02*
X0084885Y0084110D01*
X0085133Y0083512D02*
X0091018Y0083512D01*
X0090770Y0082913D02*
X0085283Y0082913D01*
X0085283Y0082315D02*
X0090745Y0082315D01*
X0090745Y0081716D02*
X0085283Y0081716D01*
X0085283Y0081118D02*
X0090788Y0081118D01*
X0091035Y0080519D02*
X0085050Y0080519D01*
X0084802Y0079921D02*
X0091283Y0079921D01*
X0091761Y0079322D02*
X0084554Y0079322D01*
X0084045Y0078724D02*
X0092359Y0078724D01*
X0093573Y0078125D02*
X0083447Y0078125D01*
X0079383Y0073337D02*
X0090946Y0073337D01*
X0090745Y0072738D02*
X0079982Y0072738D01*
X0080580Y0072140D02*
X0090745Y0072140D01*
X0090745Y0071541D02*
X0081179Y0071541D01*
X0081624Y0070943D02*
X0090860Y0070943D01*
X0091108Y0070344D02*
X0081624Y0070344D01*
X0081624Y0069746D02*
X0091356Y0069746D01*
X0091935Y0069147D02*
X0081624Y0069147D01*
X0081624Y0068549D02*
X0092550Y0068549D01*
X0093995Y0067950D02*
X0081624Y0067950D01*
X0081275Y0067352D02*
X0159584Y0067352D01*
X0160182Y0066753D02*
X0080677Y0066753D01*
X0080078Y0066155D02*
X0160781Y0066155D01*
X0161379Y0065556D02*
X0132260Y0065556D01*
X0132922Y0064958D02*
X0161978Y0064958D01*
X0162576Y0064359D02*
X0133520Y0064359D01*
X0133768Y0063761D02*
X0163175Y0063761D01*
X0163773Y0063162D02*
X0134016Y0063162D01*
X0134145Y0062564D02*
X0164372Y0062564D01*
X0164808Y0061965D02*
X0134145Y0061965D01*
X0134145Y0061367D02*
X0164808Y0061367D01*
X0164808Y0060768D02*
X0133957Y0060768D01*
X0133710Y0060170D02*
X0164808Y0060170D01*
X0164808Y0059571D02*
X0133378Y0059571D01*
X0132780Y0058973D02*
X0164808Y0058973D01*
X0164808Y0058374D02*
X0131918Y0058374D01*
X0130895Y0067950D02*
X0158985Y0067950D01*
X0158387Y0068549D02*
X0132339Y0068549D01*
X0132954Y0069147D02*
X0157788Y0069147D01*
X0157190Y0069746D02*
X0133534Y0069746D01*
X0133782Y0070344D02*
X0156591Y0070344D01*
X0155993Y0070943D02*
X0134030Y0070943D01*
X0134145Y0071541D02*
X0155394Y0071541D01*
X0154796Y0072140D02*
X0134145Y0072140D01*
X0134145Y0072738D02*
X0154197Y0072738D01*
X0153599Y0073337D02*
X0133944Y0073337D01*
X0131182Y0078286D02*
X0130429Y0078136D01*
X0127745Y0078136D01*
X0127745Y0081736D01*
X0127145Y0081736D01*
X0127145Y0078136D01*
X0124461Y0078136D01*
X0123707Y0078286D01*
X0122998Y0078580D01*
X0122359Y0079007D01*
X0121816Y0079550D01*
X0121389Y0080189D01*
X0121095Y0080899D01*
X0120945Y0081652D01*
X0120945Y0081736D01*
X0127145Y0081736D01*
X0127145Y0082336D01*
X0120945Y0082336D01*
X0120945Y0082420D01*
X0121095Y0083174D01*
X0121389Y0083884D01*
X0121816Y0084522D01*
X0122359Y0085066D01*
X0122998Y0085492D01*
X0123707Y0085786D01*
X0124461Y0085936D01*
X0127145Y0085936D01*
X0127145Y0082336D01*
X0127745Y0082336D01*
X0133945Y0082336D01*
X0133945Y0082420D01*
X0133795Y0083174D01*
X0133501Y0083884D01*
X0133074Y0084522D01*
X0132531Y0085066D01*
X0131892Y0085492D01*
X0131182Y0085786D01*
X0130429Y0085936D01*
X0127745Y0085936D01*
X0127745Y0082336D01*
X0127745Y0081736D01*
X0133945Y0081736D01*
X0133945Y0081652D01*
X0133795Y0080899D01*
X0133501Y0080189D01*
X0133074Y0079550D01*
X0132531Y0079007D01*
X0131892Y0078580D01*
X0131182Y0078286D01*
X0132107Y0078724D02*
X0143230Y0078724D01*
X0143546Y0079322D02*
X0132846Y0079322D01*
X0133322Y0079921D02*
X0144145Y0079921D01*
X0144743Y0080519D02*
X0133638Y0080519D01*
X0133839Y0081118D02*
X0145342Y0081118D01*
X0145219Y0081716D02*
X0133945Y0081716D01*
X0133847Y0082913D02*
X0144022Y0082913D01*
X0143424Y0083512D02*
X0133655Y0083512D01*
X0133350Y0084110D02*
X0142825Y0084110D01*
X0142227Y0084709D02*
X0132888Y0084709D01*
X0132169Y0085307D02*
X0141628Y0085307D01*
X0141030Y0085906D02*
X0130582Y0085906D01*
X0127745Y0085906D02*
X0127145Y0085906D01*
X0127145Y0085307D02*
X0127745Y0085307D01*
X0127745Y0084709D02*
X0127145Y0084709D01*
X0127145Y0084110D02*
X0127745Y0084110D01*
X0127745Y0083512D02*
X0127145Y0083512D01*
X0127145Y0082913D02*
X0127745Y0082913D01*
X0127745Y0082315D02*
X0144621Y0082315D01*
X0150986Y0075731D02*
X0151205Y0075731D01*
X0151803Y0075132D02*
X0150387Y0075132D01*
X0149789Y0074534D02*
X0152402Y0074534D01*
X0153000Y0073935D02*
X0149190Y0073935D01*
X0127745Y0078724D02*
X0127145Y0078724D01*
X0127145Y0079322D02*
X0127745Y0079322D01*
X0127745Y0079921D02*
X0127145Y0079921D01*
X0127145Y0080519D02*
X0127745Y0080519D01*
X0127745Y0081118D02*
X0127145Y0081118D01*
X0127145Y0081716D02*
X0127745Y0081716D01*
X0127145Y0082315D02*
X0104145Y0082315D01*
X0104119Y0082913D02*
X0121043Y0082913D01*
X0121235Y0083512D02*
X0103872Y0083512D01*
X0103624Y0084110D02*
X0121540Y0084110D01*
X0122002Y0084709D02*
X0103171Y0084709D01*
X0102572Y0085307D02*
X0122720Y0085307D01*
X0124307Y0085906D02*
X0101417Y0085906D01*
X0100860Y0087936D02*
X0102367Y0088560D01*
X0103521Y0089714D01*
X0104145Y0091221D01*
X0104145Y0092852D01*
X0103521Y0094359D01*
X0102367Y0095512D01*
X0100860Y0096136D01*
X0094029Y0096136D01*
X0092522Y0095512D01*
X0091369Y0094359D01*
X0090745Y0092852D01*
X0090745Y0091221D01*
X0091369Y0089714D01*
X0092522Y0088560D01*
X0094029Y0087936D01*
X0100860Y0087936D01*
X0101738Y0088300D02*
X0123152Y0088300D01*
X0122185Y0088898D02*
X0102705Y0088898D01*
X0103304Y0089497D02*
X0121586Y0089497D01*
X0121211Y0090095D02*
X0103679Y0090095D01*
X0103927Y0090694D02*
X0120963Y0090694D01*
X0120745Y0091292D02*
X0104145Y0091292D01*
X0104145Y0091891D02*
X0120745Y0091891D01*
X0120745Y0092489D02*
X0104145Y0092489D01*
X0104047Y0093088D02*
X0120843Y0093088D01*
X0121091Y0093686D02*
X0103799Y0093686D01*
X0103551Y0094285D02*
X0121338Y0094285D01*
X0121894Y0094883D02*
X0102996Y0094883D01*
X0102397Y0095482D02*
X0122492Y0095482D01*
X0123895Y0096080D02*
X0100995Y0096080D01*
X0101637Y0098474D02*
X0122730Y0098474D01*
X0122010Y0099073D02*
X0102597Y0099073D01*
X0103155Y0099671D02*
X0121411Y0099671D01*
X0121139Y0100270D02*
X0103535Y0100270D01*
X0103782Y0100868D02*
X0120891Y0100868D01*
X0127445Y0109586D02*
X0173557Y0063473D01*
X0173557Y0034191D01*
X0174807Y0032942D01*
X0170083Y0031177D02*
X0170083Y0029792D01*
X0170083Y0031177D02*
X0166608Y0034652D01*
X0162019Y0026643D02*
X0112839Y0026643D01*
X0097445Y0042036D01*
X0099509Y0037426D02*
X0039818Y0037426D01*
X0040417Y0038025D02*
X0093816Y0038025D01*
X0092460Y0038623D02*
X0079036Y0038623D01*
X0079634Y0039222D02*
X0091861Y0039222D01*
X0091345Y0040586D02*
X0091345Y0043486D01*
X0093395Y0045536D01*
X0092217Y0045207D02*
X0080223Y0045207D01*
X0080821Y0044608D02*
X0091619Y0044608D01*
X0091225Y0044010D02*
X0081305Y0044010D01*
X0081305Y0043411D02*
X0090977Y0043411D01*
X0090745Y0042813D02*
X0081305Y0042813D01*
X0077705Y0042813D02*
X0077106Y0042813D01*
X0077106Y0043411D02*
X0077705Y0043411D01*
X0077705Y0044010D02*
X0077106Y0044010D01*
X0077106Y0044608D02*
X0077705Y0044608D01*
X0077705Y0045207D02*
X0077106Y0045207D01*
X0077106Y0045805D02*
X0077705Y0045805D01*
X0077705Y0046404D02*
X0077106Y0046404D01*
X0077106Y0041017D02*
X0077705Y0041017D01*
X0077705Y0040419D02*
X0077106Y0040419D01*
X0077106Y0039820D02*
X0077705Y0039820D01*
X0077705Y0039222D02*
X0077106Y0039222D01*
X0077106Y0038623D02*
X0077705Y0038623D01*
X0075775Y0038623D02*
X0041015Y0038623D01*
X0041614Y0039222D02*
X0075177Y0039222D01*
X0074578Y0039820D02*
X0042212Y0039820D01*
X0042811Y0040419D02*
X0073980Y0040419D01*
X0073506Y0041017D02*
X0043410Y0041017D01*
X0041909Y0044608D02*
X0041104Y0044608D01*
X0035503Y0046404D02*
X0022158Y0046404D01*
X0022757Y0045805D02*
X0034904Y0045805D01*
X0034305Y0045207D02*
X0023355Y0045207D01*
X0023954Y0044608D02*
X0033707Y0044608D01*
X0038443Y0036828D02*
X0100108Y0036828D01*
X0100706Y0036229D02*
X0077114Y0036229D01*
X0076816Y0036527D02*
X0075501Y0036527D01*
X0075501Y0032927D01*
X0074901Y0032927D01*
X0074901Y0036527D01*
X0073585Y0036527D01*
X0071301Y0034242D01*
X0071301Y0032927D01*
X0074901Y0032927D01*
X0074901Y0032327D01*
X0071301Y0032327D01*
X0071301Y0031011D01*
X0073585Y0028727D01*
X0074901Y0028727D01*
X0074901Y0032327D01*
X0075501Y0032327D01*
X0075501Y0032927D01*
X0079101Y0032927D01*
X0079101Y0034242D01*
X0076816Y0036527D01*
X0077712Y0035631D02*
X0101305Y0035631D01*
X0101903Y0035032D02*
X0078311Y0035032D01*
X0078909Y0034434D02*
X0102502Y0034434D01*
X0103100Y0033835D02*
X0079101Y0033835D01*
X0079101Y0033237D02*
X0103699Y0033237D01*
X0104297Y0032638D02*
X0075501Y0032638D01*
X0075501Y0032327D02*
X0079101Y0032327D01*
X0079101Y0031011D01*
X0076816Y0028727D01*
X0075501Y0028727D01*
X0075501Y0032327D01*
X0075501Y0032040D02*
X0074901Y0032040D01*
X0074901Y0032638D02*
X0034254Y0032638D01*
X0033655Y0032040D02*
X0071301Y0032040D01*
X0071301Y0031441D02*
X0033057Y0031441D01*
X0032458Y0030843D02*
X0071469Y0030843D01*
X0073265Y0029047D02*
X0061422Y0029047D01*
X0062020Y0028449D02*
X0108487Y0028449D01*
X0107888Y0029047D02*
X0077137Y0029047D01*
X0077735Y0029646D02*
X0107290Y0029646D01*
X0106691Y0030244D02*
X0078334Y0030244D01*
X0078932Y0030843D02*
X0106093Y0030843D01*
X0105494Y0031441D02*
X0079101Y0031441D01*
X0079101Y0032040D02*
X0104896Y0032040D01*
X0104280Y0027252D02*
X0103680Y0027252D01*
X0103680Y0026653D02*
X0104280Y0026653D01*
X0104280Y0026055D02*
X0103680Y0026055D01*
X0103680Y0025456D02*
X0104280Y0025456D01*
X0104280Y0024858D02*
X0103680Y0024858D01*
X0103680Y0024259D02*
X0104280Y0024259D01*
X0104280Y0023661D02*
X0103680Y0023661D01*
X0103680Y0023062D02*
X0104280Y0023062D01*
X0103680Y0022463D02*
X0092723Y0022463D01*
X0092723Y0022074D02*
X0092723Y0023390D01*
X0089123Y0023390D01*
X0089123Y0023990D01*
X0088523Y0023990D01*
X0088523Y0023390D01*
X0089123Y0023390D01*
X0089123Y0019790D01*
X0090438Y0019790D01*
X0092723Y0022074D01*
X0092513Y0021865D02*
X0099380Y0021865D01*
X0099380Y0021266D02*
X0091915Y0021266D01*
X0091316Y0020668D02*
X0099552Y0020668D01*
X0100150Y0020069D02*
X0090718Y0020069D01*
X0089123Y0020069D02*
X0088523Y0020069D01*
X0088523Y0020668D02*
X0089123Y0020668D01*
X0089123Y0021266D02*
X0088523Y0021266D01*
X0088523Y0021865D02*
X0089123Y0021865D01*
X0089123Y0022463D02*
X0088523Y0022463D01*
X0088523Y0023062D02*
X0089123Y0023062D01*
X0089123Y0023661D02*
X0099380Y0023661D01*
X0099380Y0024259D02*
X0092723Y0024259D01*
X0092723Y0023990D02*
X0092723Y0025305D01*
X0090438Y0027590D01*
X0089123Y0027590D01*
X0089123Y0023990D01*
X0092723Y0023990D01*
X0092723Y0024858D02*
X0099588Y0024858D01*
X0100186Y0025456D02*
X0092572Y0025456D01*
X0091973Y0026055D02*
X0100785Y0026055D01*
X0101383Y0026653D02*
X0091375Y0026653D01*
X0090776Y0027252D02*
X0101982Y0027252D01*
X0105979Y0027252D02*
X0109684Y0027252D01*
X0109085Y0027850D02*
X0062619Y0027850D01*
X0063217Y0027252D02*
X0086869Y0027252D01*
X0086271Y0026653D02*
X0063353Y0026653D01*
X0063353Y0026055D02*
X0085672Y0026055D01*
X0088523Y0026055D02*
X0089123Y0026055D01*
X0089123Y0026653D02*
X0088523Y0026653D01*
X0088523Y0027252D02*
X0089123Y0027252D01*
X0089123Y0025456D02*
X0088523Y0025456D01*
X0088523Y0024858D02*
X0089123Y0024858D01*
X0089123Y0024259D02*
X0088523Y0024259D01*
X0088523Y0023661D02*
X0063128Y0023661D01*
X0061281Y0019471D02*
X0100749Y0019471D01*
X0101347Y0018872D02*
X0061879Y0018872D01*
X0062478Y0018274D02*
X0101946Y0018274D01*
X0099380Y0023062D02*
X0092723Y0023062D01*
X0086928Y0020069D02*
X0022204Y0020069D01*
X0022284Y0020668D02*
X0086329Y0020668D01*
X0085731Y0021266D02*
X0022882Y0021266D01*
X0020784Y0024259D02*
X0008945Y0024259D01*
X0008945Y0023661D02*
X0020185Y0023661D01*
X0019587Y0023062D02*
X0019314Y0023062D01*
X0021382Y0024858D02*
X0008945Y0024858D01*
X0008945Y0025456D02*
X0021981Y0025456D01*
X0022579Y0026055D02*
X0008945Y0026055D01*
X0008945Y0026653D02*
X0023178Y0026653D01*
X0023776Y0027252D02*
X0008945Y0027252D01*
X0008945Y0027850D02*
X0024375Y0027850D01*
X0015340Y0023062D02*
X0008945Y0023062D01*
X0008945Y0022463D02*
X0014180Y0022463D01*
X0013581Y0021865D02*
X0008945Y0021865D01*
X0008945Y0021266D02*
X0012983Y0021266D01*
X0012697Y0020668D02*
X0008945Y0020668D01*
X0008945Y0020069D02*
X0012449Y0020069D01*
X0012201Y0019471D02*
X0008945Y0019471D01*
X0008945Y0018872D02*
X0012127Y0018872D01*
X0012127Y0018274D02*
X0008945Y0018274D01*
X0008945Y0017675D02*
X0012127Y0017675D01*
X0012187Y0017077D02*
X0008945Y0017077D01*
X0008945Y0016478D02*
X0012435Y0016478D01*
X0012683Y0015880D02*
X0008945Y0015880D01*
X0008945Y0015281D02*
X0012948Y0015281D01*
X0013547Y0014683D02*
X0008945Y0014683D01*
X0008945Y0014084D02*
X0014145Y0014084D01*
X0015256Y0013486D02*
X0008945Y0013486D01*
X0034852Y0033237D02*
X0071301Y0033237D01*
X0071301Y0033835D02*
X0035451Y0033835D01*
X0036049Y0034434D02*
X0071492Y0034434D01*
X0072091Y0035032D02*
X0036648Y0035032D01*
X0037246Y0035631D02*
X0072689Y0035631D01*
X0073288Y0036229D02*
X0037845Y0036229D01*
X0023508Y0042509D02*
X0017406Y0048611D01*
X0014413Y0045805D02*
X0008945Y0045805D01*
X0008945Y0045207D02*
X0015011Y0045207D01*
X0015610Y0044608D02*
X0008945Y0044608D01*
X0008945Y0044010D02*
X0019461Y0044010D01*
X0020060Y0043411D02*
X0008945Y0043411D01*
X0008945Y0042813D02*
X0015255Y0042813D01*
X0014268Y0042214D02*
X0008945Y0042214D01*
X0008945Y0041616D02*
X0013615Y0041616D01*
X0013152Y0041017D02*
X0008945Y0041017D01*
X0008945Y0040419D02*
X0012817Y0040419D01*
X0012578Y0039820D02*
X0008945Y0039820D01*
X0008945Y0039222D02*
X0012417Y0039222D01*
X0013814Y0046404D02*
X0008945Y0046404D01*
X0008945Y0047002D02*
X0013306Y0047002D01*
X0013306Y0047601D02*
X0008945Y0047601D01*
X0008945Y0048199D02*
X0013306Y0048199D01*
X0013306Y0048798D02*
X0008945Y0048798D01*
X0008945Y0049396D02*
X0013306Y0049396D01*
X0013306Y0049995D02*
X0008945Y0049995D01*
X0008945Y0050594D02*
X0013590Y0050594D01*
X0014188Y0051192D02*
X0008945Y0051192D01*
X0008945Y0051791D02*
X0014787Y0051791D01*
X0015385Y0052389D02*
X0008945Y0052389D01*
X0017406Y0058611D02*
X0017406Y0088139D01*
X0012445Y0093099D01*
X0017573Y0091891D02*
X0079783Y0091891D01*
X0080383Y0091891D02*
X0090745Y0091891D01*
X0090745Y0092489D02*
X0085083Y0092489D01*
X0084991Y0093088D02*
X0090843Y0093088D01*
X0091091Y0093686D02*
X0084829Y0093686D01*
X0084589Y0094285D02*
X0091338Y0094285D01*
X0091894Y0094883D02*
X0084252Y0094883D01*
X0083787Y0095482D02*
X0092492Y0095482D01*
X0093895Y0096080D02*
X0083131Y0096080D01*
X0085015Y0091292D02*
X0090745Y0091292D01*
X0090963Y0090694D02*
X0084878Y0090694D01*
X0084665Y0090095D02*
X0091211Y0090095D01*
X0091586Y0089497D02*
X0084360Y0089497D01*
X0083926Y0088898D02*
X0092185Y0088898D01*
X0093152Y0088300D02*
X0083338Y0088300D01*
X0092143Y0075132D02*
X0019205Y0075132D01*
X0019205Y0074534D02*
X0091544Y0074534D01*
X0091194Y0073935D02*
X0019205Y0073935D01*
X0019205Y0073337D02*
X0035664Y0073337D01*
X0035065Y0072738D02*
X0019205Y0072738D01*
X0019205Y0072140D02*
X0034467Y0072140D01*
X0033868Y0071541D02*
X0019205Y0071541D01*
X0019205Y0070943D02*
X0033424Y0070943D01*
X0033424Y0070344D02*
X0019205Y0070344D01*
X0019205Y0069746D02*
X0033424Y0069746D01*
X0039383Y0073337D02*
X0075664Y0073337D01*
X0075065Y0072738D02*
X0039982Y0072738D01*
X0040580Y0072140D02*
X0074467Y0072140D01*
X0073868Y0071541D02*
X0041179Y0071541D01*
X0041624Y0070943D02*
X0073424Y0070943D01*
X0066358Y0069147D02*
X0041624Y0069147D01*
X0041624Y0068549D02*
X0065850Y0068549D01*
X0065251Y0067950D02*
X0041624Y0067950D01*
X0041275Y0067352D02*
X0064653Y0067352D01*
X0064054Y0066753D02*
X0040677Y0066753D01*
X0040078Y0066155D02*
X0063456Y0066155D01*
X0058372Y0055980D02*
X0093653Y0055980D01*
X0092392Y0055382D02*
X0057774Y0055382D01*
X0057175Y0054783D02*
X0091793Y0054783D01*
X0091297Y0054185D02*
X0056577Y0054185D01*
X0055978Y0053586D02*
X0091049Y0053586D01*
X0090801Y0052988D02*
X0055380Y0052988D01*
X0042445Y0058099D02*
X0041933Y0058611D01*
X0017406Y0058611D01*
X0019205Y0075731D02*
X0093051Y0075731D01*
X0102530Y0078724D02*
X0122783Y0078724D01*
X0122044Y0079322D02*
X0103129Y0079322D01*
X0103606Y0079921D02*
X0121568Y0079921D01*
X0121252Y0080519D02*
X0103854Y0080519D01*
X0104102Y0081118D02*
X0121051Y0081118D01*
X0120945Y0081716D02*
X0104145Y0081716D01*
X0097745Y0098474D02*
X0097145Y0098474D01*
X0097145Y0099073D02*
X0097745Y0099073D01*
X0097745Y0099671D02*
X0097145Y0099671D01*
X0097145Y0100270D02*
X0097745Y0100270D01*
X0097745Y0100868D02*
X0097145Y0100868D01*
X0097145Y0101467D02*
X0097745Y0101467D01*
X0097745Y0103263D02*
X0097145Y0103263D01*
X0097145Y0103861D02*
X0097745Y0103861D01*
X0097745Y0104460D02*
X0097145Y0104460D01*
X0097145Y0105058D02*
X0097745Y0105058D01*
X0097745Y0105657D02*
X0097145Y0105657D01*
X0093394Y0105657D02*
X0083895Y0105657D01*
X0084492Y0105058D02*
X0092351Y0105058D01*
X0091774Y0104460D02*
X0084740Y0104460D01*
X0084988Y0103861D02*
X0091379Y0103861D01*
X0091132Y0103263D02*
X0085236Y0103263D01*
X0085283Y0102664D02*
X0090993Y0102664D01*
X0093753Y0108051D02*
X0014079Y0108051D01*
X0015290Y0108649D02*
X0092434Y0108649D01*
X0091835Y0109248D02*
X0015947Y0109248D01*
X0016546Y0109846D02*
X0091314Y0109846D01*
X0091066Y0110445D02*
X0016974Y0110445D01*
X0017222Y0111043D02*
X0090818Y0111043D01*
X0090745Y0111642D02*
X0017470Y0111642D01*
X0017645Y0112240D02*
X0090745Y0112240D01*
X0090745Y0112839D02*
X0017645Y0112839D01*
X0017645Y0113437D02*
X0090987Y0113437D01*
X0091235Y0114036D02*
X0017645Y0114036D01*
X0017437Y0114634D02*
X0091645Y0114634D01*
X0092243Y0115233D02*
X0017190Y0115233D01*
X0016294Y0126604D02*
X0196096Y0126604D01*
X0195520Y0126006D02*
X0131175Y0126006D01*
X0132472Y0125407D02*
X0195273Y0125407D01*
X0195025Y0124809D02*
X0133070Y0124809D01*
X0133582Y0124210D02*
X0194777Y0124210D01*
X0194745Y0123612D02*
X0133830Y0123612D01*
X0134078Y0123013D02*
X0194745Y0123013D01*
X0194745Y0122415D02*
X0134145Y0122415D01*
X0134145Y0121816D02*
X0194848Y0121816D01*
X0195096Y0121218D02*
X0134144Y0121218D01*
X0133896Y0120619D02*
X0195344Y0120619D01*
X0195669Y0120021D02*
X0133648Y0120021D01*
X0133229Y0119422D02*
X0196268Y0119422D01*
X0196866Y0118824D02*
X0132631Y0118824D01*
X0127445Y0112036D02*
X0127445Y0109586D01*
X0138708Y0100868D02*
X0144813Y0100868D01*
X0144211Y0100270D02*
X0139306Y0100270D01*
X0139905Y0099671D02*
X0143637Y0099671D01*
X0143389Y0099073D02*
X0140503Y0099073D01*
X0141102Y0098474D02*
X0143141Y0098474D01*
X0143030Y0097876D02*
X0141701Y0097876D01*
X0142299Y0097277D02*
X0143030Y0097277D01*
X0143030Y0096679D02*
X0142898Y0096679D01*
X0093933Y0137976D02*
X0014259Y0137976D01*
X0015110Y0138575D02*
X0092508Y0138575D01*
X0091910Y0139173D02*
X0015873Y0139173D01*
X0015520Y0137378D02*
X0196869Y0137378D01*
X0196271Y0136779D02*
X0016119Y0136779D01*
X0016717Y0136181D02*
X0195672Y0136181D01*
X0196695Y0127203D02*
X0015695Y0127203D01*
X0015698Y0128998D02*
X0092084Y0128998D01*
X0091486Y0129597D02*
X0016297Y0129597D01*
X0016871Y0130196D02*
X0091170Y0130196D01*
X0090922Y0130794D02*
X0017118Y0130794D01*
X0017366Y0131393D02*
X0090745Y0131393D01*
X0090745Y0131991D02*
X0017614Y0131991D01*
X0017645Y0132590D02*
X0090745Y0132590D01*
X0090884Y0133188D02*
X0017645Y0133188D01*
X0017645Y0133787D02*
X0091132Y0133787D01*
X0091395Y0134385D02*
X0017541Y0134385D01*
X0017293Y0134984D02*
X0091994Y0134984D01*
X0092692Y0135582D02*
X0017045Y0135582D01*
X0011052Y0148151D02*
X0008945Y0148151D01*
X0008945Y0148749D02*
X0010829Y0148749D01*
X0009484Y0149348D02*
X0008945Y0149348D01*
X0008945Y0147552D02*
X0009607Y0147552D01*
X0008946Y0146954D02*
X0008945Y0146954D01*
X0017374Y0165508D02*
X0021384Y0165508D01*
X0021977Y0165508D02*
X0092518Y0165508D01*
X0091920Y0164909D02*
X0024496Y0164909D01*
X0027014Y0164311D02*
X0091349Y0164311D01*
X0091101Y0163712D02*
X0029533Y0163712D01*
X0032051Y0163114D02*
X0090853Y0163114D01*
X0090745Y0162515D02*
X0034569Y0162515D01*
X0037088Y0161917D02*
X0090745Y0161917D01*
X0090745Y0161318D02*
X0039606Y0161318D01*
X0042125Y0160720D02*
X0090952Y0160720D01*
X0091200Y0160121D02*
X0044643Y0160121D01*
X0047162Y0159523D02*
X0091560Y0159523D01*
X0092159Y0158924D02*
X0049680Y0158924D01*
X0052199Y0158326D02*
X0093089Y0158326D01*
X0093535Y0155932D02*
X0062273Y0155932D01*
X0064791Y0155333D02*
X0092343Y0155333D01*
X0091745Y0154734D02*
X0067310Y0154734D01*
X0069828Y0154136D02*
X0091277Y0154136D01*
X0091029Y0153537D02*
X0072346Y0153537D01*
X0074865Y0152939D02*
X0090781Y0152939D01*
X0090745Y0152340D02*
X0077383Y0152340D01*
X0079902Y0151742D02*
X0090745Y0151742D01*
X0090777Y0151143D02*
X0082420Y0151143D01*
X0084939Y0150545D02*
X0086061Y0150545D01*
X0088828Y0150545D02*
X0091025Y0150545D01*
X0091273Y0149946D02*
X0089542Y0149946D01*
X0089946Y0149348D02*
X0091735Y0149348D01*
X0092333Y0148749D02*
X0090194Y0148749D01*
X0089989Y0146954D02*
X0196446Y0146954D01*
X0195847Y0146355D02*
X0089645Y0146355D01*
X0093957Y0166106D02*
X0017126Y0166106D01*
X0016835Y0166705D02*
X0202445Y0166705D01*
X0202445Y0167303D02*
X0016237Y0167303D01*
X0015638Y0167902D02*
X0202445Y0167902D01*
X0202445Y0164909D02*
X0132687Y0164909D01*
X0133216Y0164311D02*
X0202445Y0164311D01*
X0202445Y0163712D02*
X0133572Y0163712D01*
X0133807Y0163114D02*
X0202445Y0163114D01*
X0202445Y0162515D02*
X0133926Y0162515D01*
X0133878Y0161318D02*
X0202445Y0161318D01*
X0202445Y0160720D02*
X0133721Y0160720D01*
X0133456Y0160121D02*
X0202445Y0160121D01*
X0202445Y0159523D02*
X0133047Y0159523D01*
X0132407Y0158924D02*
X0202445Y0158924D01*
X0202445Y0158326D02*
X0131278Y0158326D01*
X0131355Y0155932D02*
X0202445Y0155932D01*
X0202445Y0156530D02*
X0059754Y0156530D01*
X0057236Y0157129D02*
X0202445Y0157129D01*
X0202445Y0157727D02*
X0054717Y0157727D01*
X0019753Y0173887D02*
X0012800Y0173887D01*
X0016360Y0176879D02*
X0016761Y0176879D01*
X0016789Y0176281D02*
X0017359Y0176281D01*
X0017094Y0175682D02*
X0017958Y0175682D01*
X0018556Y0175084D02*
X0017303Y0175084D01*
X0017436Y0174485D02*
X0019155Y0174485D01*
X0016162Y0177478D02*
X0015779Y0177478D01*
X0015564Y0178076D02*
X0014896Y0178076D01*
X0014965Y0178675D02*
X0013991Y0178675D01*
X0009288Y0197827D02*
X0008945Y0197827D01*
X0008945Y0202017D02*
X0202445Y0202017D01*
X0202445Y0202615D02*
X0008945Y0202615D01*
X0101570Y0201418D02*
X0137604Y0201418D01*
X0137005Y0200820D02*
X0102169Y0200820D01*
X0102767Y0200221D02*
X0136407Y0200221D01*
X0135808Y0199623D02*
X0103366Y0199623D01*
X0103628Y0199024D02*
X0135628Y0199024D01*
X0135628Y0198426D02*
X0103628Y0198426D01*
X0104995Y0172036D02*
X0127445Y0172036D01*
X0122668Y0168500D02*
X0102222Y0168500D01*
X0102906Y0169099D02*
X0121984Y0169099D01*
X0121386Y0169697D02*
X0103504Y0169697D01*
X0103762Y0170296D02*
X0104189Y0170296D01*
X0127145Y0165508D02*
X0127745Y0165508D01*
X0127745Y0164909D02*
X0127145Y0164909D01*
X0127145Y0164311D02*
X0127745Y0164311D01*
X0127745Y0163712D02*
X0127145Y0163712D01*
X0127145Y0163114D02*
X0127745Y0163114D01*
X0127745Y0162515D02*
X0127145Y0162515D01*
X0127745Y0161917D02*
X0202445Y0161917D01*
X0202445Y0155333D02*
X0132546Y0155333D01*
X0133145Y0154734D02*
X0202445Y0154734D01*
X0202445Y0154136D02*
X0133613Y0154136D01*
X0133861Y0153537D02*
X0202445Y0153537D01*
X0202445Y0152939D02*
X0134109Y0152939D01*
X0134145Y0152340D02*
X0202445Y0152340D01*
X0202445Y0151742D02*
X0134145Y0151742D01*
X0134113Y0151143D02*
X0202445Y0151143D01*
X0202445Y0150545D02*
X0133865Y0150545D01*
X0133617Y0149946D02*
X0202445Y0149946D01*
X0202445Y0149348D02*
X0133155Y0149348D01*
X0132556Y0148749D02*
X0202445Y0148749D01*
X0202445Y0148151D02*
X0201337Y0148151D01*
X0164367Y0185259D02*
X0148156Y0185259D01*
X0149210Y0185857D02*
X0163169Y0185857D01*
X0162451Y0186456D02*
X0149809Y0186456D01*
X0150401Y0187054D02*
X0161940Y0187054D01*
X0161567Y0187653D02*
X0150649Y0187653D01*
X0150897Y0188251D02*
X0161296Y0188251D01*
X0161106Y0188850D02*
X0151145Y0188850D01*
X0151188Y0189448D02*
X0161012Y0189448D01*
X0092629Y0065556D02*
X0079480Y0065556D01*
X0075501Y0036229D02*
X0074901Y0036229D01*
X0074901Y0035631D02*
X0075501Y0035631D01*
X0075501Y0035032D02*
X0074901Y0035032D01*
X0074901Y0034434D02*
X0075501Y0034434D01*
X0075501Y0033835D02*
X0074901Y0033835D01*
X0074901Y0033237D02*
X0075501Y0033237D01*
X0075501Y0031441D02*
X0074901Y0031441D01*
X0074901Y0030843D02*
X0075501Y0030843D01*
X0075501Y0030244D02*
X0074901Y0030244D01*
X0074901Y0029646D02*
X0075501Y0029646D01*
X0075501Y0029047D02*
X0074901Y0029047D01*
X0073786Y0016478D02*
X0063553Y0016478D01*
X0063553Y0015880D02*
X0072656Y0015880D01*
X0072057Y0015281D02*
X0063553Y0015281D01*
X0063553Y0014683D02*
X0071615Y0014683D01*
X0071367Y0014084D02*
X0063553Y0014084D01*
X0063236Y0013486D02*
X0071119Y0013486D01*
X0076616Y0016478D02*
X0085813Y0016478D01*
X0085215Y0015880D02*
X0077746Y0015880D01*
X0078344Y0015281D02*
X0084723Y0015281D01*
X0084723Y0014683D02*
X0078787Y0014683D01*
X0079035Y0014084D02*
X0084723Y0014084D01*
X0084723Y0013486D02*
X0079283Y0013486D01*
X0086412Y0017077D02*
X0063553Y0017077D01*
X0063076Y0017675D02*
X0087010Y0017675D01*
X0106577Y0026653D02*
X0110282Y0026653D01*
X0110881Y0026055D02*
X0107176Y0026055D01*
X0107775Y0025456D02*
X0111479Y0025456D01*
X0112078Y0024858D02*
X0108373Y0024858D01*
X0116280Y0016478D02*
X0119042Y0016478D01*
X0118443Y0015880D02*
X0116280Y0015880D01*
X0115805Y0015281D02*
X0117845Y0015281D01*
X0117246Y0014683D02*
X0115206Y0014683D01*
X0114608Y0014084D02*
X0116809Y0014084D01*
X0116809Y0013486D02*
X0114009Y0013486D01*
X0163409Y0013486D02*
X0183267Y0013486D01*
X0183051Y0014084D02*
X0164395Y0014084D01*
X0164994Y0014683D02*
X0183051Y0014683D01*
X0183051Y0015281D02*
X0165437Y0015281D01*
X0165685Y0015880D02*
X0183051Y0015880D01*
X0183051Y0016478D02*
X0165933Y0016478D01*
X0166008Y0017077D02*
X0183151Y0017077D01*
X0183399Y0017675D02*
X0166008Y0017675D01*
X0166008Y0018274D02*
X0167842Y0018274D01*
X0167243Y0018872D02*
X0165827Y0018872D01*
X0165580Y0019471D02*
X0166645Y0019471D01*
X0166046Y0020069D02*
X0165332Y0020069D01*
X0165448Y0020668D02*
X0164739Y0020668D01*
X0164849Y0021266D02*
X0164140Y0021266D01*
X0172323Y0018274D02*
X0183647Y0018274D01*
X0183895Y0018872D02*
X0172922Y0018872D01*
X0173520Y0019471D02*
X0184155Y0019471D01*
X0184753Y0020069D02*
X0174119Y0020069D01*
X0174717Y0020668D02*
X0185352Y0020668D01*
X0185950Y0021266D02*
X0175316Y0021266D01*
X0175357Y0021865D02*
X0187136Y0021865D01*
X0188581Y0022463D02*
X0175357Y0022463D01*
X0191742Y0022463D02*
X0202445Y0022463D01*
X0202445Y0021865D02*
X0193187Y0021865D01*
X0194372Y0021266D02*
X0202445Y0021266D01*
X0202445Y0020668D02*
X0194971Y0020668D01*
X0195569Y0020069D02*
X0202445Y0020069D01*
X0202445Y0019471D02*
X0196168Y0019471D01*
X0196428Y0018872D02*
X0202445Y0018872D01*
X0202445Y0018274D02*
X0196676Y0018274D01*
X0196924Y0017675D02*
X0202445Y0017675D01*
X0202445Y0017077D02*
X0197172Y0017077D01*
X0197272Y0016478D02*
X0202445Y0016478D01*
X0202445Y0015880D02*
X0197272Y0015880D01*
X0197272Y0015281D02*
X0202445Y0015281D01*
X0202445Y0014683D02*
X0197272Y0014683D01*
X0197272Y0014084D02*
X0202445Y0014084D01*
X0202445Y0013486D02*
X0197055Y0013486D01*
X0192479Y0037426D02*
X0202445Y0037426D01*
X0202445Y0038025D02*
X0193924Y0038025D01*
X0194678Y0038623D02*
X0202445Y0038623D01*
X0202445Y0039222D02*
X0195276Y0039222D01*
X0195875Y0039820D02*
X0202445Y0039820D01*
X0202445Y0040419D02*
X0196307Y0040419D01*
X0196555Y0041017D02*
X0202445Y0041017D01*
X0202445Y0041616D02*
X0196803Y0041616D01*
X0197051Y0042214D02*
X0202445Y0042214D01*
X0202445Y0042813D02*
X0197272Y0042813D01*
X0197272Y0043411D02*
X0202445Y0043411D01*
X0202445Y0044010D02*
X0197272Y0044010D01*
X0197272Y0044608D02*
X0202445Y0044608D01*
X0202445Y0045207D02*
X0197272Y0045207D01*
X0197177Y0045805D02*
X0202445Y0045805D01*
X0202445Y0046404D02*
X0196929Y0046404D01*
X0196681Y0047002D02*
X0202445Y0047002D01*
X0202445Y0047601D02*
X0196433Y0047601D01*
X0196180Y0048199D02*
X0202445Y0048199D01*
X0202445Y0048798D02*
X0195581Y0048798D01*
X0194983Y0049396D02*
X0202445Y0049396D01*
X0202445Y0049995D02*
X0194384Y0049995D01*
X0193215Y0050594D02*
X0202445Y0050594D01*
X0202445Y0051192D02*
X0191770Y0051192D01*
D20*
X0087445Y0143099D03*
X0087445Y0148099D03*
X0042445Y0058099D03*
M02*
